<?xml version="1.0" encoding="UTF-8" standalone="no"?>
<!-- Created with Inkscape (http://www.inkscape.org/) -->

<svg
   width="351.00003mm"
   height="300.49448mm"
   viewBox="0 0 351.00003 300.49447"
   version="1.1"
   id="svg1491"
   inkscape:version="1.1.1 (3bf5ae0d25, 2021-09-20)"
   sodipodi:docname="numicon vormen solids.svg"
   xmlns:inkscape="http://www.inkscape.org/namespaces/inkscape"
   xmlns:sodipodi="http://sodipodi.sourceforge.net/DTD/sodipodi-0.dtd"
   xmlns="http://www.w3.org/2000/svg"
   xmlns:svg="http://www.w3.org/2000/svg">
  <sodipodi:namedview
     id="namedview1493"
     pagecolor="#ffffff"
     bordercolor="#666666"
     borderopacity="1.0"
     inkscape:pageshadow="2"
     inkscape:pageopacity="0.0"
     inkscape:pagecheckerboard="0"
     inkscape:document-units="mm"
     showgrid="true"
     inkscape:zoom="0.68942615"
     inkscape:cx="616.45471"
     inkscape:cy="229.90135"
     inkscape:window-width="1920"
     inkscape:window-height="1001"
     inkscape:window-x="-9"
     inkscape:window-y="-9"
     inkscape:window-maximized="1"
     inkscape:current-layer="layer2"
     objecttolerance="6.6"
     inkscape:snap-grids="true"
     inkscape:snap-to-guides="true"
     inkscape:snap-page="true"
     showguides="false"
     fit-margin-top="0"
     fit-margin-left="0"
     fit-margin-right="0"
     fit-margin-bottom="0">
    <inkscape:grid
       type="xygrid"
       id="grid17638"
       spacingx="5"
       spacingy="5"
       units="mm"
       originx="175.50004"
       originy="50.50001" />
  </sodipodi:namedview>
  <defs
     id="defs1488">
    <inkscape:path-effect
       effect="fillet_chamfer"
       id="path-effect16702"
       is_visible="true"
       lpeversion="1"
       satellites_param="F,0,0,1,0,4,0,1 @ F,0,0,1,0,4,0,1 @ F,0,0,1,0,4,0,1 @ F,0,0,1,0,4,0,1 @ F,0,0,1,0,4,0,1 @ F,0,0,1,0,4,0,1"
       unit="mm"
       method="auto"
       mode="F"
       radius="4"
       chamfer_steps="1"
       flexible="false"
       use_knot_distance="true"
       apply_no_radius="true"
       apply_with_radius="true"
       only_selected="false"
       hide_knots="false" />
    <inkscape:path-effect
       effect="fillet_chamfer"
       id="path-effect1655"
       is_visible="true"
       lpeversion="1"
       satellites_param="F,0,0,1,0,4,0,1 @ F,0,0,1,0,4,0,1 @ F,0,0,1,0,4,0,1 @ F,0,0,1,0,4,0,1 @ F,0,0,1,0,4,0,1 @ F,0,0,1,0,4,0,1"
       unit="mm"
       method="auto"
       mode="F"
       radius="4"
       chamfer_steps="1"
       flexible="false"
       use_knot_distance="true"
       apply_no_radius="true"
       apply_with_radius="true"
       only_selected="false"
       hide_knots="false" />
    <inkscape:path-effect
       effect="fillet_chamfer"
       id="path-effect1641"
       is_visible="true"
       lpeversion="1"
       satellites_param="F,0,0,1,0,4,0,1 @ F,0,0,1,0,4,0,1 @ F,0,0,1,0,4,0,1 @ F,0,0,1,0,4,0,1 @ F,0,0,1,0,4,0,1 @ F,0,0,1,0,4,0,1"
       unit="mm"
       method="auto"
       mode="F"
       radius="4"
       chamfer_steps="1"
       flexible="false"
       use_knot_distance="true"
       apply_no_radius="true"
       apply_with_radius="true"
       only_selected="false"
       hide_knots="false" />
    <inkscape:path-effect
       effect="fillet_chamfer"
       id="path-effect7880"
       is_visible="true"
       lpeversion="1"
       satellites_param="F,0,0,1,0,4,0,1 @ F,0,0,1,0,4,0,1 @ F,0,0,1,0,4,0,1 @ F,0,0,1,0,4,0,1 @ F,0,0,1,0,4,0,1 @ F,0,0,1,0,4,0,1"
       unit="mm"
       method="auto"
       mode="F"
       radius="4"
       chamfer_steps="1"
       flexible="false"
       use_knot_distance="true"
       apply_no_radius="true"
       apply_with_radius="true"
       only_selected="false"
       hide_knots="false" />
    <inkscape:path-effect
       effect="fillet_chamfer"
       id="path-effect7824"
       is_visible="true"
       lpeversion="1"
       satellites_param="F,0,0,1,0,4,0,1 @ F,0,0,1,0,4,0,1 @ F,0,0,1,0,4,0,1 @ F,0,0,1,0,4,0,1 @ F,0,0,1,0,4,0,1 @ F,0,0,1,0,4,0,1"
       unit="mm"
       method="auto"
       mode="F"
       radius="4"
       chamfer_steps="1"
       flexible="false"
       use_knot_distance="true"
       apply_no_radius="true"
       apply_with_radius="true"
       only_selected="false"
       hide_knots="false" />
    <inkscape:path-effect
       effect="fillet_chamfer"
       id="path-effect10999"
       is_visible="true"
       lpeversion="1"
       satellites_param="F,0,0,1,0,4,0,1 @ F,0,0,1,0,4,0,1 @ F,0,0,1,0,4,0,1 @ F,0,0,1,0,4,0,1 @ F,0,0,1,0,4,0,1 @ F,0,0,1,0,4,0,1"
       unit="mm"
       method="auto"
       mode="F"
       radius="4"
       chamfer_steps="1"
       flexible="false"
       use_knot_distance="true"
       apply_no_radius="true"
       apply_with_radius="true"
       only_selected="false"
       hide_knots="false" />
    <inkscape:path-effect
       effect="fillet_chamfer"
       id="path-effect10993"
       is_visible="true"
       lpeversion="1"
       satellites_param="F,0,0,1,0,4,0,1 @ F,0,0,1,0,4,0,1 @ F,0,0,1,0,4,0,1 @ F,0,0,1,0,4,0,1 @ F,0,0,1,0,4,0,1 @ F,0,0,1,0,4,0,1 @ F,0,0,1,0,4,0,1 @ F,0,0,1,0,4,0,1"
       unit="mm"
       method="auto"
       mode="F"
       radius="4"
       chamfer_steps="1"
       flexible="false"
       use_knot_distance="true"
       apply_no_radius="true"
       apply_with_radius="true"
       only_selected="false"
       hide_knots="false" />
    <inkscape:path-effect
       effect="fillet_chamfer"
       id="path-effect10989"
       is_visible="true"
       lpeversion="1"
       satellites_param="F,0,0,1,0,0,0,1 @ F,0,0,1,0,0,0,1 @ F,0,0,1,0,0,0,1 @ F,0,0,1,0,0,0,1 @ F,0,0,1,0,0,0,1 @ F,0,0,1,0,0,0,1 @ F,0,0,1,0,0,0,1 @ F,0,0,1,0,0,0,1"
       unit="mm"
       method="auto"
       mode="F"
       radius="4"
       chamfer_steps="1"
       flexible="false"
       use_knot_distance="true"
       apply_no_radius="true"
       apply_with_radius="true"
       only_selected="false"
       hide_knots="false" />
    <inkscape:path-effect
       effect="fillet_chamfer"
       id="path-effect10901"
       is_visible="true"
       lpeversion="1"
       satellites_param="F,0,0,1,0,4,0,1 @ F,0,0,1,0,4,0,1 @ F,0,0,1,0,4,0,1 @ F,0,0,1,0,4,0,1 @ F,0,0,1,0,4,0,1 @ F,0,0,1,0,4,0,1 @ F,0,0,1,0,4,0,1 @ F,0,0,1,0,4,0,1"
       unit="mm"
       method="auto"
       mode="F"
       radius="4"
       chamfer_steps="1"
       flexible="false"
       use_knot_distance="true"
       apply_no_radius="true"
       apply_with_radius="true"
       only_selected="false"
       hide_knots="false" />
    <inkscape:path-effect
       effect="fillet_chamfer"
       id="path-effect10897"
       is_visible="true"
       lpeversion="1"
       satellites_param="F,0,0,1,0,0,0,1 @ F,0,0,1,0,0,0,1 @ F,0,0,1,0,0,0,1 @ F,0,0,1,0,0,0,1 @ F,0,0,1,0,0,0,1 @ F,0,0,1,0,0,0,1 @ F,0,0,1,0,0,0,1 @ F,0,0,1,0,0,0,1"
       unit="mm"
       method="auto"
       mode="F"
       radius="4"
       chamfer_steps="1"
       flexible="false"
       use_knot_distance="true"
       apply_no_radius="true"
       apply_with_radius="true"
       only_selected="false"
       hide_knots="false" />
    <inkscape:path-effect
       effect="fillet_chamfer"
       id="path-effect10891"
       is_visible="true"
       lpeversion="1"
       satellites_param="F,0,0,1,0,4,0,1 @ F,0,0,1,0,4,0,1 @ F,0,0,1,0,4,0,1 @ F,0,0,1,0,4,0,1 @ F,0,0,1,0,4,0,1 @ F,0,0,1,0,4,0,1"
       unit="mm"
       method="auto"
       mode="F"
       radius="4"
       chamfer_steps="1"
       flexible="false"
       use_knot_distance="true"
       apply_no_radius="true"
       apply_with_radius="true"
       only_selected="false"
       hide_knots="false" />
    <inkscape:path-effect
       effect="fillet_chamfer"
       id="path-effect10812"
       is_visible="true"
       lpeversion="1"
       satellites_param="F,0,0,1,0,4,0,1 @ F,0,0,1,0,4,0,1 @ F,0,0,1,0,4,0,1 @ F,0,0,1,0,4,0,1 @ F,0,0,1,0,4,0,1 @ F,0,0,1,0,4,0,1"
       unit="mm"
       method="auto"
       mode="F"
       radius="4"
       chamfer_steps="1"
       flexible="false"
       use_knot_distance="true"
       apply_no_radius="true"
       apply_with_radius="true"
       only_selected="false"
       hide_knots="false" />
    <inkscape:path-effect
       effect="fillet_chamfer"
       id="path-effect10806"
       is_visible="true"
       lpeversion="1"
       satellites_param="F,0,0,1,0,4,0,1 @ F,0,0,1,0,4,0,1 @ F,0,0,1,0,4,0,1 @ F,0,0,1,0,4,0,1 @ F,0,0,1,0,4,0,1 @ F,0,0,1,0,4,0,1"
       unit="mm"
       method="auto"
       mode="F"
       radius="4"
       chamfer_steps="1"
       flexible="false"
       use_knot_distance="true"
       apply_no_radius="true"
       apply_with_radius="true"
       only_selected="false"
       hide_knots="false" />
    <inkscape:path-effect
       effect="fillet_chamfer"
       id="path-effect10647"
       is_visible="true"
       lpeversion="1"
       satellites_param="F,0,0,1,0,4,0,1 @ F,0,0,1,0,4,0,1 @ F,0,0,1,0,4,0,1 @ F,0,0,1,0,4,0,1 @ F,0,0,1,0,4,0,1 @ F,0,0,1,0,4,0,1"
       unit="mm"
       method="auto"
       mode="F"
       radius="4"
       chamfer_steps="1"
       flexible="false"
       use_knot_distance="true"
       apply_no_radius="true"
       apply_with_radius="true"
       only_selected="false"
       hide_knots="false" />
    <inkscape:path-effect
       effect="fillet_chamfer"
       id="path-effect10641"
       is_visible="true"
       lpeversion="1"
       satellites_param="F,0,0,1,0,4,0,1 @ F,0,0,1,0,4,0,1 @ F,0,0,1,0,4,0,1 @ F,0,0,1,0,4,0,1 @ F,0,0,1,0,4,0,1 @ F,0,0,1,0,4,0,1"
       unit="mm"
       method="auto"
       mode="F"
       radius="4"
       chamfer_steps="1"
       flexible="false"
       use_knot_distance="true"
       apply_no_radius="true"
       apply_with_radius="true"
       only_selected="false"
       hide_knots="false" />
    <inkscape:path-effect
       effect="fillet_chamfer"
       id="path-effect10634"
       is_visible="true"
       lpeversion="1"
       satellites_param="F,0,0,1,0,4,0,1 @ F,0,0,1,0,4,0,1 @ F,0,0,1,0,4,0,1 @ F,0,0,1,0,4,0,1 @ F,0,0,1,0,4,0,1 @ F,0,0,1,0,4,0,1"
       unit="mm"
       method="auto"
       mode="F"
       radius="4"
       chamfer_steps="1"
       flexible="false"
       use_knot_distance="true"
       apply_no_radius="true"
       apply_with_radius="true"
       only_selected="false"
       hide_knots="false" />
    <inkscape:path-effect
       effect="fillet_chamfer"
       id="path-effect10628"
       is_visible="true"
       lpeversion="1"
       satellites_param="F,0,0,1,0,4,0,1 @ F,0,0,1,0,4,0,1 @ F,0,0,1,0,4,0,1 @ F,0,0,1,0,4,0,1 @ F,0,0,1,0,4,0,1 @ F,0,0,1,0,4,0,1"
       unit="mm"
       method="auto"
       mode="F"
       radius="4"
       chamfer_steps="1"
       flexible="false"
       use_knot_distance="true"
       apply_no_radius="true"
       apply_with_radius="true"
       only_selected="false"
       hide_knots="false" />
    <inkscape:path-effect
       effect="fillet_chamfer"
       id="path-effect10542"
       is_visible="true"
       lpeversion="1"
       satellites_param="F,0,0,1,0,4,0,1 @ F,0,0,1,0,4,0,1 @ F,0,0,1,0,4,0,1 @ F,0,0,1,0,4,0,1 @ F,0,0,1,0,4,0,1 @ F,0,0,1,0,4,0,1 @ F,0,0,1,0,4,0,1 @ F,0,0,1,0,4,0,1"
       unit="mm"
       method="auto"
       mode="F"
       radius="4"
       chamfer_steps="1"
       flexible="false"
       use_knot_distance="true"
       apply_no_radius="true"
       apply_with_radius="true"
       only_selected="false"
       hide_knots="false" />
    <inkscape:path-effect
       effect="fillet_chamfer"
       id="path-effect10538"
       is_visible="true"
       lpeversion="1"
       satellites_param="F,0,0,1,0,0,0,1 @ F,0,0,1,0,0,0,1 @ F,0,0,1,0,0,0,1 @ F,0,0,1,0,0,0,1 @ F,0,0,1,0,0,0,1 @ F,0,0,1,0,0,0,1 @ F,0,0,1,0,0,0,1 @ F,0,0,1,0,0,0,1"
       unit="mm"
       method="auto"
       mode="F"
       radius="4"
       chamfer_steps="1"
       flexible="false"
       use_knot_distance="true"
       apply_no_radius="true"
       apply_with_radius="true"
       only_selected="false"
       hide_knots="false" />
    <inkscape:path-effect
       effect="fillet_chamfer"
       id="path-effect10532"
       is_visible="true"
       lpeversion="1"
       satellites_param="F,0,0,1,0,4,0,1 @ F,0,0,1,0,4,0,1 @ F,0,0,1,0,4,0,1 @ F,0,0,1,0,4,0,1 @ F,0,0,1,0,4,0,1 @ F,0,0,1,0,4,0,1"
       unit="mm"
       method="auto"
       mode="F"
       radius="4"
       chamfer_steps="1"
       flexible="false"
       use_knot_distance="true"
       apply_no_radius="true"
       apply_with_radius="true"
       only_selected="false"
       hide_knots="false" />
    <inkscape:path-effect
       effect="fillet_chamfer"
       id="path-effect10530"
       is_visible="true"
       lpeversion="1"
       satellites_param="F,0,0,1,0,4,0,1 @ F,0,0,1,0,4,0,1 @ F,0,0,1,0,4,0,1 @ F,0,0,1,0,4,0,1 @ F,0,0,1,0,4,0,1 @ F,0,0,1,0,4,0,1 @ F,0,0,1,0,4,0,1 @ F,0,0,1,0,4,0,1 @ F,0,0,1,0,4,0,1 @ F,0,0,1,0,4,0,1 @ F,0,0,1,0,4,0,1 @ F,0,0,1,0,4,0,1"
       unit="mm"
       method="auto"
       mode="F"
       radius="4"
       chamfer_steps="1"
       flexible="false"
       use_knot_distance="true"
       apply_no_radius="true"
       apply_with_radius="true"
       only_selected="false"
       hide_knots="false" />
    <inkscape:path-effect
       effect="fillet_chamfer"
       id="path-effect10528"
       is_visible="true"
       lpeversion="1"
       satellites_param="F,0,0,1,0,4,0,1 @ F,0,0,1,0,4,0,1 @ F,0,0,1,0,4,0,1 @ F,0,0,1,0,4,0,1 @ F,0,0,1,0,4,0,1 @ F,0,0,1,0,4,0,1 @ F,0,0,1,0,4,0,1 @ F,0,0,1,0,4,0,1"
       unit="mm"
       method="auto"
       mode="F"
       radius="4"
       chamfer_steps="1"
       flexible="false"
       use_knot_distance="true"
       apply_no_radius="true"
       apply_with_radius="true"
       only_selected="false"
       hide_knots="false" />
    <inkscape:path-effect
       effect="fillet_chamfer"
       id="path-effect10500"
       is_visible="true"
       lpeversion="1"
       satellites_param="F,0,0,1,0,4,0,1 @ F,0,0,1,0,4,0,1 @ F,0,0,1,0,4,0,1 @ F,0,0,1,0,4,0,1 @ F,0,0,1,0,4,0,1 @ F,0,0,1,0,4,0,1"
       unit="mm"
       method="auto"
       mode="F"
       radius="4"
       chamfer_steps="1"
       flexible="false"
       use_knot_distance="true"
       apply_no_radius="true"
       apply_with_radius="true"
       only_selected="false"
       hide_knots="false" />
    <inkscape:path-effect
       effect="fillet_chamfer"
       id="path-effect10334"
       is_visible="true"
       lpeversion="1"
       satellites_param="F,0,0,1,0,0,0,1 @ F,0,0,1,0,4,0,1 @ F,0,0,1,0,4,0,1 @ F,0,0,1,0,4,0,1 @ F,0,0,1,0,4,0,1 @ F,0,0,1,0,0,0,1"
       unit="mm"
       method="auto"
       mode="F"
       radius="4"
       chamfer_steps="1"
       flexible="false"
       use_knot_distance="true"
       apply_no_radius="true"
       apply_with_radius="true"
       only_selected="false"
       hide_knots="false" />
    <inkscape:path-effect
       effect="fillet_chamfer"
       id="path-effect10332"
       is_visible="true"
       lpeversion="1"
       satellites_param="F,0,0,1,0,4,0,1 @ F,0,0,1,0,4,0,1 @ F,0,0,1,0,4,0,1 @ F,0,0,1,0,4,0,1 @ F,0,0,1,0,4,0,1 @ F,0,0,1,0,4,0,1"
       unit="mm"
       method="auto"
       mode="F"
       radius="4"
       chamfer_steps="1"
       flexible="false"
       use_knot_distance="true"
       apply_no_radius="true"
       apply_with_radius="true"
       only_selected="false"
       hide_knots="false" />
    <inkscape:path-effect
       effect="fillet_chamfer"
       id="path-effect10330"
       is_visible="true"
       lpeversion="1"
       satellites_param="F,0,0,1,0,4,0,1 @ F,0,0,1,0,4,0,1 @ F,0,0,1,0,4,0,1 @ F,0,0,1,0,4,0,1 @ F,0,0,1,0,4,0,1 @ F,0,0,1,0,4,0,1"
       unit="mm"
       method="auto"
       mode="F"
       radius="4"
       chamfer_steps="1"
       flexible="false"
       use_knot_distance="true"
       apply_no_radius="true"
       apply_with_radius="true"
       only_selected="false"
       hide_knots="false" />
    <inkscape:path-effect
       effect="fillet_chamfer"
       id="path-effect9333"
       is_visible="true"
       lpeversion="1"
       satellites_param="F,0,0,1,0,0,0,1 @ F,0,0,1,0,0,0,1 @ F,0,0,1,0,0,0,1 @ F,0,0,1,0,0,0,1 @ F,0,0,1,0,0,0,1 @ F,0,0,1,0,0,0,1 @ F,0,0,1,0,0,0,1 @ F,0,0,1,0,0,0,1 @ F,0,0,1,0,0,0,1 @ F,0,0,1,0,0,0,1 @ F,0,0,1,0,0,0,1 @ F,0,0,1,0,0,0,1"
       unit="mm"
       method="auto"
       mode="F"
       radius="4"
       chamfer_steps="1"
       flexible="false"
       use_knot_distance="true"
       apply_no_radius="true"
       apply_with_radius="true"
       only_selected="false"
       hide_knots="false" />
    <inkscape:path-effect
       effect="bspline"
       id="path-effect9331"
       is_visible="true"
       lpeversion="1"
       weight="33.333333"
       steps="2"
       helper_size="0"
       apply_no_weight="true"
       apply_with_weight="true"
       only_selected="false" />
    <inkscape:path-effect
       effect="fillet_chamfer"
       id="path-effect8448"
       is_visible="true"
       lpeversion="1"
       satellites_param="F,0,0,1,0,0,0,1 @ F,0,0,1,0,0,0,1 @ F,0,0,1,0,0,0,1 @ F,0,0,1,0,0,0,1 @ F,0,0,1,0,0,0,1 @ F,0,0,1,0,0,0,1 @ F,0,0,1,0,0,0,1 @ F,0,0,1,0,0,0,1"
       unit="mm"
       method="auto"
       mode="F"
       radius="4"
       chamfer_steps="1"
       flexible="false"
       use_knot_distance="true"
       apply_no_radius="true"
       apply_with_radius="true"
       only_selected="false"
       hide_knots="false" />
    <inkscape:path-effect
       effect="fillet_chamfer"
       id="path-effect8331"
       is_visible="true"
       lpeversion="1"
       satellites_param="F,0,0,1,0,4,0,1 @ F,0,0,1,0,4,0,1 @ F,0,0,1,0,4,0,1 @ F,0,0,1,0,4,0,1 @ F,0,0,1,0,4,0,1 @ F,0,0,1,0,4,0,1 @ F,0,0,1,0,4,0,1 @ F,0,0,1,0,4,0,1 @ F,0,0,1,0,4,0,1 @ F,0,0,1,0,4,0,1 @ F,0,0,1,0,4,0,1 @ F,0,0,1,0,4,0,1 @ F,0,0,1,0,4,0,1"
       unit="mm"
       method="auto"
       mode="F"
       radius="4"
       chamfer_steps="1"
       flexible="false"
       use_knot_distance="true"
       apply_no_radius="true"
       apply_with_radius="true"
       only_selected="false"
       hide_knots="false" />
    <inkscape:path-effect
       effect="fillet_chamfer"
       id="path-effect8329"
       is_visible="true"
       lpeversion="1"
       satellites_param="IC,0,0,1,0,0,0,1 @ IC,0,0,1,0,0,0,1 @ IC,0,0,1,0,0,0,1 @ IC,0,0,1,0,0,0,1 @ IC,0,0,1,0,0,0,1 @ IC,0,0,1,0,0,0,1 @ IC,0,0,1,0,0,0,1 @ IC,0,0,1,0,0,0,1 @ IC,0,0,1,0,0,0,1 @ IC,0,0,1,0,0,0,1 @ IC,0,0,1,0,0,0,1 @ IC,0,0,1,0,0,0,1 @ IC,0,0,1,0,0,0,1"
       unit="mm"
       method="auto"
       mode="IC"
       radius="4"
       chamfer_steps="1"
       flexible="false"
       use_knot_distance="true"
       apply_no_radius="true"
       apply_with_radius="true"
       only_selected="false"
       hide_knots="false" />
  </defs>
  <g
     inkscape:label="platen"
     inkscape:groupmode="layer"
     id="layer1"
     transform="translate(175.50003,50.5)"
     style="display:none" />
  <g
     inkscape:groupmode="layer"
     id="layer2"
     inkscape:label="gaten"
     style="display:inline"
     transform="translate(175.40002,50.4)">
    <path
       id="rect9621"
       style="display:inline;fill:none;fill-opacity:1;stroke:#000000;stroke-width:3.77953;stroke-linecap:round;stroke-linejoin:round;stroke-miterlimit:4;stroke-dasharray:none;stroke-opacity:1"
       d="M 17.007812 379.8418 C 8.6323849 379.8418 1.890625 386.58551 1.890625 394.96094 L 1.890625 648.18945 C 1.890625 656.56488 8.6323849 663.30664 17.007812 663.30664 L 175.74805 663.30664 C 184.12347 663.30664 190.86523 656.56488 190.86523 648.18945 L 190.86523 394.96094 C 190.86523 386.58551 184.12347 379.8418 175.74805 379.8418 L 17.007812 379.8418 z M 49.134766 394.01562 A 33.070866 33.070866 0 0 1 82.205078 427.08594 A 33.070866 33.070866 0 0 1 49.134766 460.1582 A 33.070866 33.070866 0 0 1 16.0625 427.08594 A 33.070866 33.070866 0 0 1 49.134766 394.01562 z M 143.62305 394.01562 A 33.070866 33.070866 0 0 1 176.69336 427.08594 A 33.070866 33.070866 0 0 1 143.62305 460.1582 A 33.070866 33.070866 0 0 1 110.55078 427.08594 A 33.070866 33.070866 0 0 1 143.62305 394.01562 z M 49.134766 488.50391 A 33.070866 33.070866 0 0 1 82.205078 521.57422 A 33.070866 33.070866 0 0 1 49.134766 554.64648 A 33.070866 33.070866 0 0 1 16.0625 521.57422 A 33.070866 33.070866 0 0 1 49.134766 488.50391 z M 143.62305 488.50391 A 33.070866 33.070866 0 0 1 176.69336 521.57422 A 33.070866 33.070866 0 0 1 143.62305 554.64648 A 33.070866 33.070866 0 0 1 110.55078 521.57422 A 33.070866 33.070866 0 0 1 143.62305 488.50391 z M 49.134766 582.99219 A 33.070866 33.070866 0 0 1 82.205078 616.0625 A 33.070866 33.070866 0 0 1 49.134766 649.13477 A 33.070866 33.070866 0 0 1 16.0625 616.0625 A 33.070866 33.070866 0 0 1 49.134766 582.99219 z M 143.62305 582.99219 A 33.070866 33.070866 0 0 1 176.69336 616.0625 A 33.070866 33.070866 0 0 1 143.62305 649.13477 A 33.070866 33.070866 0 0 1 110.55078 616.0625 A 33.070866 33.070866 0 0 1 143.62305 582.99219 z "
       transform="matrix(0.26458333,0,0,0.26458333,-175.40002,-50.4)" />
    <path
       id="path9682"
       style="display:inline;fill:none;fill-opacity:1;stroke:#000000;stroke-width:3.77953;stroke-linecap:butt;stroke-linejoin:miter;stroke-miterlimit:4;stroke-dasharray:none;stroke-opacity:1"
       d="M 300.47266 96.378906 A 15.11811 15.11811 0 0 0 285.35352 111.49609 L 285.35352 270.23633 A 15.11811 15.11811 0 0 0 300.47266 285.35352 L 459.21289 285.35352 A 15.11811 15.11811 0 0 0 474.33008 270.23633 L 474.33008 205.98438 A 15.11811 15.11811 0 0 0 459.21289 190.86523 L 394.96094 190.86523 A 15.11811 15.11811 0 0 1 379.8418 175.74805 L 379.8418 111.49609 A 15.11811 15.11811 0 0 0 364.72461 96.378906 L 300.47266 96.378906 z M 332.59766 110.55078 A 33.070866 33.070866 0 0 1 365.66992 143.62109 A 33.070866 33.070866 0 0 1 332.59766 176.69336 A 33.070866 33.070866 0 0 1 299.52734 143.62109 A 33.070866 33.070866 0 0 1 332.59766 110.55078 z M 332.59766 205.03906 A 33.070866 33.070866 0 0 1 365.66992 238.10938 A 33.070866 33.070866 0 0 1 332.59766 271.18164 A 33.070866 33.070866 0 0 1 299.52734 238.10938 A 33.070866 33.070866 0 0 1 332.59766 205.03906 z M 427.08594 205.03906 A 33.070866 33.070866 0 0 1 460.1582 238.10938 A 33.070866 33.070866 0 0 1 427.08594 271.18164 A 33.070866 33.070866 0 0 1 394.01562 238.10938 A 33.070866 33.070866 0 0 1 427.08594 205.03906 z "
       transform="matrix(0.26458333,0,0,0.26458333,-175.40002,-50.4)" />
    <path
       id="rect9623"
       style="display:inline;fill:none;fill-opacity:1;stroke:#000000;stroke-width:3.77953;stroke-linecap:round;stroke-linejoin:round;stroke-miterlimit:4;stroke-dasharray:none;stroke-opacity:1"
       d="M 394.96094 285.35352 C 386.58551 285.35352 379.8418 292.09723 379.8418 300.47266 L 379.8418 648.18945 C 379.8418 656.56488 386.58551 663.30664 394.96094 663.30664 L 553.70117 663.30664 C 562.0766 663.30664 568.81836 656.56488 568.81836 648.18945 L 568.81836 300.47266 C 568.81836 292.09723 562.0766 285.35352 553.70117 285.35352 L 394.96094 285.35352 z M 427.08594 299.52734 A 33.070866 33.070866 0 0 1 460.1582 332.59766 A 33.070866 33.070866 0 0 1 427.08594 365.66992 A 33.070866 33.070866 0 0 1 394.01562 332.59766 A 33.070866 33.070866 0 0 1 427.08594 299.52734 z M 521.57422 299.52734 A 33.070866 33.070866 0 0 1 554.64648 332.59766 A 33.070866 33.070866 0 0 1 521.57422 365.66992 A 33.070866 33.070866 0 0 1 488.50391 332.59766 A 33.070866 33.070866 0 0 1 521.57422 299.52734 z M 427.08594 394.01562 A 33.070866 33.070866 0 0 1 460.1582 427.08594 A 33.070866 33.070866 0 0 1 427.08594 460.1582 A 33.070866 33.070866 0 0 1 394.01562 427.08594 A 33.070866 33.070866 0 0 1 427.08594 394.01562 z M 521.57422 394.01562 A 33.070866 33.070866 0 0 1 554.64648 427.08594 A 33.070866 33.070866 0 0 1 521.57422 460.1582 A 33.070866 33.070866 0 0 1 488.50391 427.08594 A 33.070866 33.070866 0 0 1 521.57422 394.01562 z M 427.08594 488.50391 A 33.070866 33.070866 0 0 1 460.1582 521.57422 A 33.070866 33.070866 0 0 1 427.08594 554.64648 A 33.070866 33.070866 0 0 1 394.01562 521.57422 A 33.070866 33.070866 0 0 1 427.08594 488.50391 z M 521.57422 488.50391 A 33.070866 33.070866 0 0 1 554.64648 521.57422 A 33.070866 33.070866 0 0 1 521.57422 554.64648 A 33.070866 33.070866 0 0 1 488.50391 521.57422 A 33.070866 33.070866 0 0 1 521.57422 488.50391 z M 427.08594 582.99219 A 33.070866 33.070866 0 0 1 460.1582 616.0625 A 33.070866 33.070866 0 0 1 427.08594 649.13477 A 33.070866 33.070866 0 0 1 394.01562 616.0625 A 33.070866 33.070866 0 0 1 427.08594 582.99219 z M 521.57422 582.99219 A 33.070866 33.070866 0 0 1 554.64648 616.0625 A 33.070866 33.070866 0 0 1 521.57422 649.13477 A 33.070866 33.070866 0 0 1 488.50391 616.0625 A 33.070866 33.070866 0 0 1 521.57422 582.99219 z "
       transform="matrix(0.26458333,0,0,0.26458333,-175.40002,-50.4)" />
    <path
       id="rect9615"
       style="display:inline;fill:none;fill-opacity:1;stroke:#000000;stroke-width:3.77953;stroke-linecap:round;stroke-linejoin:round;stroke-miterlimit:4;stroke-dasharray:none;stroke-opacity:1"
       d="M 17.007812 190.86523 C 8.6323849 190.86523 1.890625 197.60895 1.890625 205.98438 L 1.890625 270.23633 C 1.890625 278.61176 8.6323849 285.35352 17.007812 285.35352 L 81.259766 285.35352 C 89.635193 285.35352 96.378906 278.61176 96.378906 270.23633 L 96.378906 205.98438 C 96.378906 197.60895 89.635193 190.86523 81.259766 190.86523 L 17.007812 190.86523 z M 49.134766 205.03906 A 33.070866 33.070866 0 0 1 82.205078 238.10938 A 33.070866 33.070866 0 0 1 49.134766 271.18164 A 33.070866 33.070866 0 0 1 16.0625 238.10938 A 33.070866 33.070866 0 0 1 49.134766 205.03906 z "
       transform="matrix(0.26458333,0,0,0.26458333,-175.40002,-50.4)" />
    <path
       id="rect9619"
       style="display:inline;fill:none;fill-opacity:1;stroke:#000000;stroke-width:3.77953;stroke-linecap:round;stroke-linejoin:round;stroke-miterlimit:4;stroke-dasharray:none;stroke-opacity:1"
       d="M 489.44922 96.378906 C 481.07379 96.378906 474.33008 103.12067 474.33008 111.49609 L 474.33008 270.23633 C 474.33008 278.61176 481.07379 285.35352 489.44922 285.35352 L 648.18945 285.35352 C 656.56488 285.35352 663.30664 278.61176 663.30664 270.23633 L 663.30664 111.49609 C 663.30664 103.12067 656.56488 96.378906 648.18945 96.378906 L 489.44922 96.378906 z M 521.57422 110.55078 A 33.070866 33.070866 0 0 1 554.64648 143.62109 A 33.070866 33.070866 0 0 1 521.57422 176.69336 A 33.070866 33.070866 0 0 1 488.50391 143.62109 A 33.070866 33.070866 0 0 1 521.57422 110.55078 z M 616.0625 110.55078 A 33.070866 33.070866 0 0 1 649.13477 143.62109 A 33.070866 33.070866 0 0 1 616.0625 176.69336 A 33.070866 33.070866 0 0 1 582.99219 143.62109 A 33.070866 33.070866 0 0 1 616.0625 110.55078 z M 521.57422 205.03906 A 33.070866 33.070866 0 0 1 554.64648 238.10938 A 33.070866 33.070866 0 0 1 521.57422 271.18164 A 33.070866 33.070866 0 0 1 488.50391 238.10938 A 33.070866 33.070866 0 0 1 521.57422 205.03906 z M 616.0625 205.03906 A 33.070866 33.070866 0 0 1 649.13477 238.10938 A 33.070866 33.070866 0 0 1 616.0625 271.18164 A 33.070866 33.070866 0 0 1 582.99219 238.10938 A 33.070866 33.070866 0 0 1 616.0625 205.03906 z "
       transform="matrix(0.26458333,0,0,0.26458333,-175.40002,-50.4)" />
    <path
       id="path10496"
       style="display:inline;fill:none;fill-opacity:1;stroke:#000000;stroke-width:3.77953;stroke-linecap:butt;stroke-linejoin:miter;stroke-miterlimit:4;stroke-dasharray:none;stroke-opacity:1"
       d="M 205.98438 285.35547 A 15.11811 15.11811 0 0 0 190.86719 300.47266 L 190.86719 489.44922 L 190.86719 553.70117 L 190.86719 648.18945 C 190.86719 656.56489 197.60894 663.30859 205.98438 663.30859 L 364.72461 663.30859 C 373.10004 663.30859 379.84375 656.56489 379.84375 648.18945 L 379.84375 553.70117 L 379.84375 489.44922 L 379.84375 394.96094 A 15.11811 15.11811 0 0 0 364.72461 379.84375 L 300.47266 379.84375 A 15.11811 15.11811 0 0 1 285.35547 364.72461 L 285.35547 300.47266 A 15.11811 15.11811 0 0 0 270.23633 285.35547 L 205.98438 285.35547 z M 238.11133 299.5293 A 33.070866 33.070866 0 0 1 271.18164 332.59961 A 33.070866 33.070866 0 0 1 238.11133 365.66992 A 33.070866 33.070866 0 0 1 205.04102 332.59961 A 33.070866 33.070866 0 0 1 238.11133 299.5293 z M 238.11133 394.01562 A 33.070866 33.070866 0 0 1 271.18164 427.08789 A 33.070866 33.070866 0 0 1 238.11133 460.1582 A 33.070866 33.070866 0 0 1 205.04102 427.08789 A 33.070866 33.070866 0 0 1 238.11133 394.01562 z M 332.59961 394.01562 A 33.070866 33.070866 0 0 1 365.66992 427.08789 A 33.070866 33.070866 0 0 1 332.59961 460.1582 A 33.070866 33.070866 0 0 1 299.5293 427.08789 A 33.070866 33.070866 0 0 1 332.59961 394.01562 z M 238.11133 488.50391 A 33.070866 33.070866 0 0 1 271.18164 521.57617 A 33.070866 33.070866 0 0 1 238.11133 554.64648 A 33.070866 33.070866 0 0 1 205.04102 521.57617 A 33.070866 33.070866 0 0 1 238.11133 488.50391 z M 332.59961 488.50391 A 33.070866 33.070866 0 0 1 365.66992 521.57617 A 33.070866 33.070866 0 0 1 332.59961 554.64648 A 33.070866 33.070866 0 0 1 299.5293 521.57617 A 33.070866 33.070866 0 0 1 332.59961 488.50391 z M 238.11133 582.99219 A 33.070866 33.070866 0 0 1 271.18164 616.06445 A 33.070866 33.070866 0 0 1 238.11133 649.13477 A 33.070866 33.070866 0 0 1 205.04102 616.06445 A 33.070866 33.070866 0 0 1 238.11133 582.99219 z M 332.59961 582.99219 A 33.070866 33.070866 0 0 1 365.66992 616.06445 A 33.070866 33.070866 0 0 1 332.59961 649.13477 A 33.070866 33.070866 0 0 1 299.5293 616.06445 A 33.070866 33.070866 0 0 1 332.59961 582.99219 z "
       transform="matrix(0.26458333,0,0,0.26458333,-175.40002,-50.4)" />
    <path
       id="rect11253"
       style="display:inline;fill:none;fill-opacity:1;stroke:#000000;stroke-width:3.77953;stroke-linecap:round;stroke-linejoin:round;stroke-miterlimit:4;stroke-dasharray:none;stroke-opacity:1"
       d="M 111.49609 190.86523 C 103.12067 190.86523 96.378906 197.60895 96.378906 205.98438 L 96.378906 270.23633 C 96.378906 278.61176 103.12067 285.35352 111.49609 285.35352 L 270.23633 285.35352 C 278.61176 285.35352 285.35352 278.61176 285.35352 270.23633 L 285.35352 205.98438 C 285.35352 197.60895 278.61176 190.86523 270.23633 190.86523 L 111.49609 190.86523 z M 143.62305 205.03906 A 33.070866 33.070866 0 0 1 176.69336 238.10938 A 33.070866 33.070866 0 0 1 143.62305 271.18164 A 33.070866 33.070866 0 0 1 110.55078 238.10938 A 33.070866 33.070866 0 0 1 143.62305 205.03906 z M 238.11133 205.03906 A 33.070866 33.070866 0 0 1 271.18164 238.10938 A 33.070866 33.070866 0 0 1 238.11133 271.18164 A 33.070866 33.070866 0 0 1 205.03906 238.10938 A 33.070866 33.070866 0 0 1 238.11133 205.03906 z "
       transform="matrix(0.26458333,0,0,0.26458333,-175.40002,-50.4)" />
    <path
       id="path10505"
       style="display:inline;fill:none;fill-opacity:1;stroke:#000000;stroke-width:3.77953;stroke-linecap:butt;stroke-linejoin:miter;stroke-miterlimit:4;stroke-dasharray:none;stroke-opacity:1"
       d="M 583.93555 285.35352 A 15.11811 15.11811 0 0 0 568.81836 300.4707 L 568.81836 489.44727 L 568.81836 553.69922 L 568.81836 583.93555 L 568.81836 648.1875 L 568.81836 742.67578 C 568.81836 751.05121 575.56011 757.79492 583.93555 757.79492 L 742.67578 757.79492 C 751.05121 757.79492 757.79492 751.05121 757.79492 742.67578 L 757.79492 648.1875 L 757.79492 583.93555 L 757.79492 553.69922 L 757.79492 489.44727 L 757.79492 394.95898 A 15.11811 15.11811 0 0 0 742.67578 379.8418 L 678.42383 379.8418 A 15.11811 15.11811 0 0 1 663.30664 364.72266 L 663.30664 300.4707 A 15.11811 15.11811 0 0 0 648.1875 285.35352 L 583.93555 285.35352 z M 616.0625 299.52734 A 33.070866 33.070866 0 0 1 649.13477 332.59766 A 33.070866 33.070866 0 0 1 616.0625 365.66992 A 33.070866 33.070866 0 0 1 582.99219 332.59766 A 33.070866 33.070866 0 0 1 616.0625 299.52734 z M 616.0625 394.01562 A 33.070866 33.070866 0 0 1 649.13477 427.08594 A 33.070866 33.070866 0 0 1 616.0625 460.1582 A 33.070866 33.070866 0 0 1 582.99219 427.08594 A 33.070866 33.070866 0 0 1 616.0625 394.01562 z M 710.55078 394.01562 A 33.070866 33.070866 0 0 1 743.62305 427.08594 A 33.070866 33.070866 0 0 1 710.55078 460.1582 A 33.070866 33.070866 0 0 1 677.48047 427.08594 A 33.070866 33.070866 0 0 1 710.55078 394.01562 z M 616.0625 488.50391 A 33.070866 33.070866 0 0 1 649.13477 521.57422 A 33.070866 33.070866 0 0 1 616.0625 554.64648 A 33.070866 33.070866 0 0 1 582.99219 521.57422 A 33.070866 33.070866 0 0 1 616.0625 488.50391 z M 710.55078 488.50391 A 33.070866 33.070866 0 0 1 743.62305 521.57422 A 33.070866 33.070866 0 0 1 710.55078 554.64648 A 33.070866 33.070866 0 0 1 677.48047 521.57422 A 33.070866 33.070866 0 0 1 710.55078 488.50391 z M 616.0625 582.99219 A 33.070866 33.070866 0 0 1 649.13477 616.0625 A 33.070866 33.070866 0 0 1 616.0625 649.13477 A 33.070866 33.070866 0 0 1 582.99219 616.0625 A 33.070866 33.070866 0 0 1 616.0625 582.99219 z M 710.55078 582.99219 A 33.070866 33.070866 0 0 1 743.62305 616.0625 A 33.070866 33.070866 0 0 1 710.55078 649.13477 A 33.070866 33.070866 0 0 1 677.48047 616.0625 A 33.070866 33.070866 0 0 1 710.55078 582.99219 z M 616.0625 677.48047 A 33.070866 33.070866 0 0 1 649.13477 710.55078 A 33.070866 33.070866 0 0 1 616.0625 743.62305 A 33.070866 33.070866 0 0 1 582.99219 710.55078 A 33.070866 33.070866 0 0 1 616.0625 677.48047 z M 710.55078 677.48047 A 33.070866 33.070866 0 0 1 743.62305 710.55078 A 33.070866 33.070866 0 0 1 710.55078 743.62305 A 33.070866 33.070866 0 0 1 677.48047 710.55078 A 33.070866 33.070866 0 0 1 710.55078 677.48047 z "
       transform="matrix(0.26458333,0,0,0.26458333,-175.40002,-50.4)" />
    <path
       id="rect9625"
       style="display:inline;fill:none;fill-opacity:1;stroke:#000000;stroke-width:3.45022;stroke-linecap:round;stroke-linejoin:round;stroke-miterlimit:4;stroke-dasharray:none;stroke-opacity:1"
       d="M 772.91406 285.35352 C 764.53863 285.35352 757.79492 290.9736 757.79492 297.95312 L 757.79492 745.19727 C 757.79492 752.17679 764.53863 757.79492 772.91406 757.79492 L 931.6543 757.79492 C 940.02972 757.79492 946.77148 752.17679 946.77148 745.19727 L 946.77148 297.95312 C 946.77148 290.9736 940.02972 285.35352 931.6543 285.35352 L 772.91406 285.35352 z M 805.03906 299.52734 A 33.070866 33.070866 0 0 1 838.11133 332.59766 A 33.070866 33.070866 0 0 1 805.03906 365.66992 A 33.070866 33.070866 0 0 1 771.96875 332.59766 A 33.070866 33.070866 0 0 1 805.03906 299.52734 z M 899.52734 299.52734 A 33.070866 33.070866 0 0 1 932.59766 332.59766 A 33.070866 33.070866 0 0 1 899.52734 365.66992 A 33.070866 33.070866 0 0 1 866.45703 332.59766 A 33.070866 33.070866 0 0 1 899.52734 299.52734 z M 805.03906 394.01562 A 33.070866 33.070866 0 0 1 838.11133 427.08594 A 33.070866 33.070866 0 0 1 805.03906 460.1582 A 33.070866 33.070866 0 0 1 771.96875 427.08594 A 33.070866 33.070866 0 0 1 805.03906 394.01562 z M 899.52734 394.01562 A 33.070866 33.070866 0 0 1 932.59766 427.08594 A 33.070866 33.070866 0 0 1 899.52734 460.1582 A 33.070866 33.070866 0 0 1 866.45703 427.08594 A 33.070866 33.070866 0 0 1 899.52734 394.01562 z M 805.03906 488.50391 A 33.070866 33.070866 0 0 1 838.11133 521.57422 A 33.070866 33.070866 0 0 1 805.03906 554.64648 A 33.070866 33.070866 0 0 1 771.96875 521.57422 A 33.070866 33.070866 0 0 1 805.03906 488.50391 z M 899.52734 488.50391 A 33.070866 33.070866 0 0 1 932.59766 521.57422 A 33.070866 33.070866 0 0 1 899.52734 554.64648 A 33.070866 33.070866 0 0 1 866.45703 521.57422 A 33.070866 33.070866 0 0 1 899.52734 488.50391 z M 805.03906 582.99219 A 33.070866 33.070866 0 0 1 838.11133 616.0625 A 33.070866 33.070866 0 0 1 805.03906 649.13477 A 33.070866 33.070866 0 0 1 771.96875 616.0625 A 33.070866 33.070866 0 0 1 805.03906 582.99219 z M 899.52734 582.99219 A 33.070866 33.070866 0 0 1 932.59766 616.0625 A 33.070866 33.070866 0 0 1 899.52734 649.13477 A 33.070866 33.070866 0 0 1 866.45703 616.0625 A 33.070866 33.070866 0 0 1 899.52734 582.99219 z M 805.03906 677.48047 A 33.070866 33.070866 0 0 1 838.11133 710.55078 A 33.070866 33.070866 0 0 1 805.03906 743.62109 A 33.070866 33.070866 0 0 1 771.96875 710.55078 A 33.070866 33.070866 0 0 1 805.03906 677.48047 z M 899.52734 677.48047 A 33.070866 33.070866 0 0 1 932.59766 710.55078 A 33.070866 33.070866 0 0 1 899.52734 743.62109 A 33.070866 33.070866 0 0 1 866.45703 710.55078 A 33.070866 33.070866 0 0 1 899.52734 677.48047 z "
       transform="matrix(0.26458333,0,0,0.26458333,-175.40002,-50.4)" />
    <path
       id="path9684"
       style="display:inline;fill:#ffd5d5;fill-opacity:1;stroke:none;stroke-width:1;stroke-linecap:butt;stroke-linejoin:miter;stroke-miterlimit:4;stroke-dasharray:none;stroke-opacity:1"
       d="m 29.100227,-49.899772 a 3.9999999,3.9999999 0 0 0 -4.000262,3.999756 v 67.000044 a 3.9999999,3.9999999 0 0 0 4.000262,3.999757 H 71.09974 A 3.9999999,3.9999999 0 0 0 75.1,21.100028 v -42.000021 a 3.9999999,3.9999999 0 0 0 -4.00026,-3.999755 H 54.09973 a 3.9999999,3.9999999 0 0 1 -3.99976,-4.000273 v -16.999995 a 3.9999999,3.9999999 0 0 0 -3.999735,-3.999756 z m 8.49974,3.749642 a 8.7499999,8.7499999 0 0 1 8.74985,8.75037 8.7499999,8.7499999 0 0 1 -8.74985,8.749853 8.7499999,8.7499999 0 0 1 -8.749851,-8.749853 8.7499999,8.7499999 0 0 1 8.749851,-8.75037 z m 0,25.000024 a 8.7499999,8.7499999 0 0 1 8.74985,8.749852 8.7499999,8.7499999 0 0 1 -8.74985,8.7503716 8.7499999,8.7499999 0 0 1 -8.749851,-8.7503716 8.7499999,8.7499999 0 0 1 8.749851,-8.749852 z m 25.000033,0 a 8.7499999,8.7499999 0 0 1 8.74985,8.749852 A 8.7499999,8.7499999 0 0 1 62.6,-3.6498824 8.7499999,8.7499999 0 0 1 53.85015,-12.400254 8.7499999,8.7499999 0 0 1 62.6,-21.150106 Z M 37.599967,3.8499173 a 8.7499999,8.7499999 0 0 1 8.74985,8.7498557 8.7499999,8.7499999 0 0 1 -8.74985,8.750368 8.7499999,8.7499999 0 0 1 -8.749851,-8.750368 8.7499999,8.7499999 0 0 1 8.749851,-8.7498557 z m 25.000033,0 A 8.7499999,8.7499999 0 0 1 71.34985,12.599773 8.7499999,8.7499999 0 0 1 62.6,21.350141 8.7499999,8.7499999 0 0 1 53.85015,12.599773 8.7499999,8.7499999 0 0 1 62.6,3.8499173 Z" />
  </g>
</svg>
