<?xml version="1.0" encoding="UTF-8" standalone="no"?>
<!-- Created with Inkscape (http://www.inkscape.org/) -->

<svg
   width="476mm"
   height="276.00003mm"
   viewBox="0 0 476 276.00003"
   version="1.1"
   id="svg1491"
   inkscape:version="1.1.1 (3bf5ae0d25, 2021-09-20)"
   sodipodi:docname="numicon staven.svg"
   xmlns:inkscape="http://www.inkscape.org/namespaces/inkscape"
   xmlns:sodipodi="http://sodipodi.sourceforge.net/DTD/sodipodi-0.dtd"
   xmlns="http://www.w3.org/2000/svg"
   xmlns:svg="http://www.w3.org/2000/svg">
  <sodipodi:namedview
     id="namedview1493"
     pagecolor="#ffffff"
     bordercolor="#666666"
     borderopacity="1.0"
     inkscape:pageshadow="2"
     inkscape:pageopacity="0.0"
     inkscape:pagecheckerboard="0"
     inkscape:document-units="mm"
     showgrid="true"
     inkscape:zoom="0.51150168"
     inkscape:cx="279.56897"
     inkscape:cy="593.35093"
     inkscape:window-width="1920"
     inkscape:window-height="1001"
     inkscape:window-x="-9"
     inkscape:window-y="-9"
     inkscape:window-maximized="1"
     inkscape:current-layer="layer1"
     objecttolerance="6.6"
     inkscape:snap-grids="true"
     inkscape:snap-to-guides="true"
     inkscape:snap-page="true"
     showguides="false"
     fit-margin-top="0"
     fit-margin-left="0"
     fit-margin-right="0"
     fit-margin-bottom="0">
    <inkscape:grid
       type="xygrid"
       id="grid17638"
       spacingx="5"
       spacingy="5"
       units="mm"
       originx="0.49999999"
       originy="0.50002285" />
  </sodipodi:namedview>
  <defs
     id="defs1488">
    <inkscape:path-effect
       effect="fillet_chamfer"
       id="path-effect10999"
       is_visible="true"
       lpeversion="1"
       satellites_param="F,0,0,1,0,4,0,1 @ F,0,0,1,0,4,0,1 @ F,0,0,1,0,4,0,1 @ F,0,0,1,0,4,0,1 @ F,0,0,1,0,4,0,1 @ F,0,0,1,0,4,0,1"
       unit="mm"
       method="auto"
       mode="F"
       radius="4"
       chamfer_steps="1"
       flexible="false"
       use_knot_distance="true"
       apply_no_radius="true"
       apply_with_radius="true"
       only_selected="false"
       hide_knots="false" />
    <inkscape:path-effect
       effect="fillet_chamfer"
       id="path-effect10993"
       is_visible="true"
       lpeversion="1"
       satellites_param="F,0,0,1,0,4,0,1 @ F,0,0,1,0,4,0,1 @ F,0,0,1,0,4,0,1 @ F,0,0,1,0,4,0,1 @ F,0,0,1,0,4,0,1 @ F,0,0,1,0,4,0,1 @ F,0,0,1,0,4,0,1 @ F,0,0,1,0,4,0,1"
       unit="mm"
       method="auto"
       mode="F"
       radius="4"
       chamfer_steps="1"
       flexible="false"
       use_knot_distance="true"
       apply_no_radius="true"
       apply_with_radius="true"
       only_selected="false"
       hide_knots="false" />
    <inkscape:path-effect
       effect="fillet_chamfer"
       id="path-effect10989"
       is_visible="true"
       lpeversion="1"
       satellites_param="F,0,0,1,0,0,0,1 @ F,0,0,1,0,0,0,1 @ F,0,0,1,0,0,0,1 @ F,0,0,1,0,0,0,1 @ F,0,0,1,0,0,0,1 @ F,0,0,1,0,0,0,1 @ F,0,0,1,0,0,0,1 @ F,0,0,1,0,0,0,1"
       unit="mm"
       method="auto"
       mode="F"
       radius="4"
       chamfer_steps="1"
       flexible="false"
       use_knot_distance="true"
       apply_no_radius="true"
       apply_with_radius="true"
       only_selected="false"
       hide_knots="false" />
    <inkscape:path-effect
       effect="fillet_chamfer"
       id="path-effect10901"
       is_visible="true"
       lpeversion="1"
       satellites_param="F,0,0,1,0,4,0,1 @ F,0,0,1,0,4,0,1 @ F,0,0,1,0,4,0,1 @ F,0,0,1,0,4,0,1 @ F,0,0,1,0,4,0,1 @ F,0,0,1,0,4,0,1 @ F,0,0,1,0,4,0,1 @ F,0,0,1,0,4,0,1"
       unit="mm"
       method="auto"
       mode="F"
       radius="4"
       chamfer_steps="1"
       flexible="false"
       use_knot_distance="true"
       apply_no_radius="true"
       apply_with_radius="true"
       only_selected="false"
       hide_knots="false" />
    <inkscape:path-effect
       effect="fillet_chamfer"
       id="path-effect10897"
       is_visible="true"
       lpeversion="1"
       satellites_param="F,0,0,1,0,0,0,1 @ F,0,0,1,0,0,0,1 @ F,0,0,1,0,0,0,1 @ F,0,0,1,0,0,0,1 @ F,0,0,1,0,0,0,1 @ F,0,0,1,0,0,0,1 @ F,0,0,1,0,0,0,1 @ F,0,0,1,0,0,0,1"
       unit="mm"
       method="auto"
       mode="F"
       radius="4"
       chamfer_steps="1"
       flexible="false"
       use_knot_distance="true"
       apply_no_radius="true"
       apply_with_radius="true"
       only_selected="false"
       hide_knots="false" />
    <inkscape:path-effect
       effect="fillet_chamfer"
       id="path-effect10891"
       is_visible="true"
       lpeversion="1"
       satellites_param="F,0,0,1,0,4,0,1 @ F,0,0,1,0,4,0,1 @ F,0,0,1,0,4,0,1 @ F,0,0,1,0,4,0,1 @ F,0,0,1,0,4,0,1 @ F,0,0,1,0,4,0,1"
       unit="mm"
       method="auto"
       mode="F"
       radius="4"
       chamfer_steps="1"
       flexible="false"
       use_knot_distance="true"
       apply_no_radius="true"
       apply_with_radius="true"
       only_selected="false"
       hide_knots="false" />
    <inkscape:path-effect
       effect="fillet_chamfer"
       id="path-effect10812"
       is_visible="true"
       lpeversion="1"
       satellites_param="F,0,0,1,0,4,0,1 @ F,0,0,1,0,4,0,1 @ F,0,0,1,0,4,0,1 @ F,0,0,1,0,4,0,1 @ F,0,0,1,0,4,0,1 @ F,0,0,1,0,4,0,1"
       unit="mm"
       method="auto"
       mode="F"
       radius="4"
       chamfer_steps="1"
       flexible="false"
       use_knot_distance="true"
       apply_no_radius="true"
       apply_with_radius="true"
       only_selected="false"
       hide_knots="false" />
    <inkscape:path-effect
       effect="fillet_chamfer"
       id="path-effect10806"
       is_visible="true"
       lpeversion="1"
       satellites_param="F,0,0,1,0,4,0,1 @ F,0,0,1,0,4,0,1 @ F,0,0,1,0,4,0,1 @ F,0,0,1,0,4,0,1 @ F,0,0,1,0,4,0,1 @ F,0,0,1,0,4,0,1"
       unit="mm"
       method="auto"
       mode="F"
       radius="4"
       chamfer_steps="1"
       flexible="false"
       use_knot_distance="true"
       apply_no_radius="true"
       apply_with_radius="true"
       only_selected="false"
       hide_knots="false" />
    <inkscape:path-effect
       effect="fillet_chamfer"
       id="path-effect10647"
       is_visible="true"
       lpeversion="1"
       satellites_param="F,0,0,1,0,4,0,1 @ F,0,0,1,0,4,0,1 @ F,0,0,1,0,4,0,1 @ F,0,0,1,0,4,0,1 @ F,0,0,1,0,4,0,1 @ F,0,0,1,0,4,0,1"
       unit="mm"
       method="auto"
       mode="F"
       radius="4"
       chamfer_steps="1"
       flexible="false"
       use_knot_distance="true"
       apply_no_radius="true"
       apply_with_radius="true"
       only_selected="false"
       hide_knots="false" />
    <inkscape:path-effect
       effect="fillet_chamfer"
       id="path-effect10641"
       is_visible="true"
       lpeversion="1"
       satellites_param="F,0,0,1,0,4,0,1 @ F,0,0,1,0,4,0,1 @ F,0,0,1,0,4,0,1 @ F,0,0,1,0,4,0,1 @ F,0,0,1,0,4,0,1 @ F,0,0,1,0,4,0,1"
       unit="mm"
       method="auto"
       mode="F"
       radius="4"
       chamfer_steps="1"
       flexible="false"
       use_knot_distance="true"
       apply_no_radius="true"
       apply_with_radius="true"
       only_selected="false"
       hide_knots="false" />
    <inkscape:path-effect
       effect="fillet_chamfer"
       id="path-effect10634"
       is_visible="true"
       lpeversion="1"
       satellites_param="F,0,0,1,0,4,0,1 @ F,0,0,1,0,4,0,1 @ F,0,0,1,0,4,0,1 @ F,0,0,1,0,4,0,1 @ F,0,0,1,0,4,0,1 @ F,0,0,1,0,4,0,1"
       unit="mm"
       method="auto"
       mode="F"
       radius="4"
       chamfer_steps="1"
       flexible="false"
       use_knot_distance="true"
       apply_no_radius="true"
       apply_with_radius="true"
       only_selected="false"
       hide_knots="false" />
    <inkscape:path-effect
       effect="fillet_chamfer"
       id="path-effect10628"
       is_visible="true"
       lpeversion="1"
       satellites_param="F,0,0,1,0,4,0,1 @ F,0,0,1,0,4,0,1 @ F,0,0,1,0,4,0,1 @ F,0,0,1,0,4,0,1 @ F,0,0,1,0,4,0,1 @ F,0,0,1,0,4,0,1"
       unit="mm"
       method="auto"
       mode="F"
       radius="4"
       chamfer_steps="1"
       flexible="false"
       use_knot_distance="true"
       apply_no_radius="true"
       apply_with_radius="true"
       only_selected="false"
       hide_knots="false" />
    <inkscape:path-effect
       effect="fillet_chamfer"
       id="path-effect10542"
       is_visible="true"
       lpeversion="1"
       satellites_param="F,0,0,1,0,4,0,1 @ F,0,0,1,0,4,0,1 @ F,0,0,1,0,4,0,1 @ F,0,0,1,0,4,0,1 @ F,0,0,1,0,4,0,1 @ F,0,0,1,0,4,0,1 @ F,0,0,1,0,4,0,1 @ F,0,0,1,0,4,0,1"
       unit="mm"
       method="auto"
       mode="F"
       radius="4"
       chamfer_steps="1"
       flexible="false"
       use_knot_distance="true"
       apply_no_radius="true"
       apply_with_radius="true"
       only_selected="false"
       hide_knots="false" />
    <inkscape:path-effect
       effect="fillet_chamfer"
       id="path-effect10538"
       is_visible="true"
       lpeversion="1"
       satellites_param="F,0,0,1,0,0,0,1 @ F,0,0,1,0,0,0,1 @ F,0,0,1,0,0,0,1 @ F,0,0,1,0,0,0,1 @ F,0,0,1,0,0,0,1 @ F,0,0,1,0,0,0,1 @ F,0,0,1,0,0,0,1 @ F,0,0,1,0,0,0,1"
       unit="mm"
       method="auto"
       mode="F"
       radius="4"
       chamfer_steps="1"
       flexible="false"
       use_knot_distance="true"
       apply_no_radius="true"
       apply_with_radius="true"
       only_selected="false"
       hide_knots="false" />
    <inkscape:path-effect
       effect="fillet_chamfer"
       id="path-effect10532"
       is_visible="true"
       lpeversion="1"
       satellites_param="F,0,0,1,0,4,0,1 @ F,0,0,1,0,4,0,1 @ F,0,0,1,0,4,0,1 @ F,0,0,1,0,4,0,1 @ F,0,0,1,0,4,0,1 @ F,0,0,1,0,4,0,1"
       unit="mm"
       method="auto"
       mode="F"
       radius="4"
       chamfer_steps="1"
       flexible="false"
       use_knot_distance="true"
       apply_no_radius="true"
       apply_with_radius="true"
       only_selected="false"
       hide_knots="false" />
    <inkscape:path-effect
       effect="fillet_chamfer"
       id="path-effect10530"
       is_visible="true"
       lpeversion="1"
       satellites_param="F,0,0,1,0,4,0,1 @ F,0,0,1,0,4,0,1 @ F,0,0,1,0,4,0,1 @ F,0,0,1,0,4,0,1 @ F,0,0,1,0,4,0,1 @ F,0,0,1,0,4,0,1 @ F,0,0,1,0,4,0,1 @ F,0,0,1,0,4,0,1 @ F,0,0,1,0,4,0,1 @ F,0,0,1,0,4,0,1 @ F,0,0,1,0,4,0,1 @ F,0,0,1,0,4,0,1"
       unit="mm"
       method="auto"
       mode="F"
       radius="4"
       chamfer_steps="1"
       flexible="false"
       use_knot_distance="true"
       apply_no_radius="true"
       apply_with_radius="true"
       only_selected="false"
       hide_knots="false" />
    <inkscape:path-effect
       effect="fillet_chamfer"
       id="path-effect10528"
       is_visible="true"
       lpeversion="1"
       satellites_param="F,0,0,1,0,4,0,1 @ F,0,0,1,0,4,0,1 @ F,0,0,1,0,4,0,1 @ F,0,0,1,0,4,0,1 @ F,0,0,1,0,4,0,1 @ F,0,0,1,0,4,0,1 @ F,0,0,1,0,4,0,1 @ F,0,0,1,0,4,0,1"
       unit="mm"
       method="auto"
       mode="F"
       radius="4"
       chamfer_steps="1"
       flexible="false"
       use_knot_distance="true"
       apply_no_radius="true"
       apply_with_radius="true"
       only_selected="false"
       hide_knots="false" />
    <inkscape:path-effect
       effect="fillet_chamfer"
       id="path-effect10500"
       is_visible="true"
       lpeversion="1"
       satellites_param="F,0,0,1,0,4,0,1 @ F,0,0,1,0,4,0,1 @ F,0,0,1,0,4,0,1 @ F,0,0,1,0,4,0,1 @ F,0,0,1,0,4,0,1 @ F,0,0,1,0,4,0,1"
       unit="mm"
       method="auto"
       mode="F"
       radius="4"
       chamfer_steps="1"
       flexible="false"
       use_knot_distance="true"
       apply_no_radius="true"
       apply_with_radius="true"
       only_selected="false"
       hide_knots="false" />
    <inkscape:path-effect
       effect="fillet_chamfer"
       id="path-effect10334"
       is_visible="true"
       lpeversion="1"
       satellites_param="F,0,0,1,0,0,0,1 @ F,0,0,1,0,4,0,1 @ F,0,0,1,0,4,0,1 @ F,0,0,1,0,4,0,1 @ F,0,0,1,0,4,0,1 @ F,0,0,1,0,0,0,1"
       unit="mm"
       method="auto"
       mode="F"
       radius="4"
       chamfer_steps="1"
       flexible="false"
       use_knot_distance="true"
       apply_no_radius="true"
       apply_with_radius="true"
       only_selected="false"
       hide_knots="false" />
    <inkscape:path-effect
       effect="fillet_chamfer"
       id="path-effect10332"
       is_visible="true"
       lpeversion="1"
       satellites_param="F,0,0,1,0,4,0,1 @ F,0,0,1,0,4,0,1 @ F,0,0,1,0,4,0,1 @ F,0,0,1,0,4,0,1 @ F,0,0,1,0,4,0,1 @ F,0,0,1,0,4,0,1"
       unit="mm"
       method="auto"
       mode="F"
       radius="4"
       chamfer_steps="1"
       flexible="false"
       use_knot_distance="true"
       apply_no_radius="true"
       apply_with_radius="true"
       only_selected="false"
       hide_knots="false" />
    <inkscape:path-effect
       effect="fillet_chamfer"
       id="path-effect10330"
       is_visible="true"
       lpeversion="1"
       satellites_param="F,0,0,1,0,4,0,1 @ F,0,0,1,0,4,0,1 @ F,0,0,1,0,4,0,1 @ F,0,0,1,0,4,0,1 @ F,0,0,1,0,4,0,1 @ F,0,0,1,0,4,0,1"
       unit="mm"
       method="auto"
       mode="F"
       radius="4"
       chamfer_steps="1"
       flexible="false"
       use_knot_distance="true"
       apply_no_radius="true"
       apply_with_radius="true"
       only_selected="false"
       hide_knots="false" />
    <inkscape:path-effect
       effect="fillet_chamfer"
       id="path-effect9333"
       is_visible="true"
       lpeversion="1"
       satellites_param="F,0,0,1,0,0,0,1 @ F,0,0,1,0,0,0,1 @ F,0,0,1,0,0,0,1 @ F,0,0,1,0,0,0,1 @ F,0,0,1,0,0,0,1 @ F,0,0,1,0,0,0,1 @ F,0,0,1,0,0,0,1 @ F,0,0,1,0,0,0,1 @ F,0,0,1,0,0,0,1 @ F,0,0,1,0,0,0,1 @ F,0,0,1,0,0,0,1 @ F,0,0,1,0,0,0,1"
       unit="mm"
       method="auto"
       mode="F"
       radius="4"
       chamfer_steps="1"
       flexible="false"
       use_knot_distance="true"
       apply_no_radius="true"
       apply_with_radius="true"
       only_selected="false"
       hide_knots="false" />
    <inkscape:path-effect
       effect="bspline"
       id="path-effect9331"
       is_visible="true"
       lpeversion="1"
       weight="33.333333"
       steps="2"
       helper_size="0"
       apply_no_weight="true"
       apply_with_weight="true"
       only_selected="false" />
    <inkscape:path-effect
       effect="fillet_chamfer"
       id="path-effect8448"
       is_visible="true"
       lpeversion="1"
       satellites_param="F,0,0,1,0,0,0,1 @ F,0,0,1,0,0,0,1 @ F,0,0,1,0,0,0,1 @ F,0,0,1,0,0,0,1 @ F,0,0,1,0,0,0,1 @ F,0,0,1,0,0,0,1 @ F,0,0,1,0,0,0,1 @ F,0,0,1,0,0,0,1"
       unit="mm"
       method="auto"
       mode="F"
       radius="4"
       chamfer_steps="1"
       flexible="false"
       use_knot_distance="true"
       apply_no_radius="true"
       apply_with_radius="true"
       only_selected="false"
       hide_knots="false" />
    <inkscape:path-effect
       effect="fillet_chamfer"
       id="path-effect8331"
       is_visible="true"
       lpeversion="1"
       satellites_param="F,0,0,1,0,4,0,1 @ F,0,0,1,0,4,0,1 @ F,0,0,1,0,4,0,1 @ F,0,0,1,0,4,0,1 @ F,0,0,1,0,4,0,1 @ F,0,0,1,0,4,0,1 @ F,0,0,1,0,4,0,1 @ F,0,0,1,0,4,0,1 @ F,0,0,1,0,4,0,1 @ F,0,0,1,0,4,0,1 @ F,0,0,1,0,4,0,1 @ F,0,0,1,0,4,0,1 @ F,0,0,1,0,4,0,1"
       unit="mm"
       method="auto"
       mode="F"
       radius="4"
       chamfer_steps="1"
       flexible="false"
       use_knot_distance="true"
       apply_no_radius="true"
       apply_with_radius="true"
       only_selected="false"
       hide_knots="false" />
    <inkscape:path-effect
       effect="fillet_chamfer"
       id="path-effect8329"
       is_visible="true"
       lpeversion="1"
       satellites_param="IC,0,0,1,0,0,0,1 @ IC,0,0,1,0,0,0,1 @ IC,0,0,1,0,0,0,1 @ IC,0,0,1,0,0,0,1 @ IC,0,0,1,0,0,0,1 @ IC,0,0,1,0,0,0,1 @ IC,0,0,1,0,0,0,1 @ IC,0,0,1,0,0,0,1 @ IC,0,0,1,0,0,0,1 @ IC,0,0,1,0,0,0,1 @ IC,0,0,1,0,0,0,1 @ IC,0,0,1,0,0,0,1 @ IC,0,0,1,0,0,0,1"
       unit="mm"
       method="auto"
       mode="IC"
       radius="4"
       chamfer_steps="1"
       flexible="false"
       use_knot_distance="true"
       apply_no_radius="true"
       apply_with_radius="true"
       only_selected="false"
       hide_knots="false" />
  </defs>
  <g
     inkscape:label="platen"
     inkscape:groupmode="layer"
     id="layer1"
     transform="translate(0.5,0.50002289)"
     style="display:inline">
    <path
       id="rect10697"
       style="fill:#ff8080;fill-opacity:1;stroke:none;stroke-width:3.77953;stroke-linecap:round;stroke-linejoin:round;stroke-miterlimit:4;stroke-dasharray:none;stroke-opacity:1"
       d="M 772.91406 1.890625 C 764.53863 1.890625 757.79492 8.6323849 757.79492 17.007812 L 757.79492 459.21289 C 757.79492 467.58832 764.53863 474.33008 772.91406 474.33008 L 837.16602 474.33008 C 845.54144 474.33008 852.2832 467.58832 852.2832 459.21289 L 852.2832 17.007812 C 852.2832 8.6323849 845.54144 1.890625 837.16602 1.890625 L 772.91406 1.890625 z M 805.03906 16.0625 A 33.070866 33.070866 0 0 1 838.10938 49.134766 A 33.070866 33.070866 0 0 1 805.03906 82.205078 A 33.070866 33.070866 0 0 1 771.96875 49.134766 A 33.070866 33.070866 0 0 1 805.03906 16.0625 z M 805.03906 110.55078 A 33.070866 33.070866 0 0 1 838.10938 143.62305 A 33.070866 33.070866 0 0 1 805.03906 176.69336 A 33.070866 33.070866 0 0 1 771.96875 143.62305 A 33.070866 33.070866 0 0 1 805.03906 110.55078 z M 805.03906 205.03906 A 33.070866 33.070866 0 0 1 838.10938 238.10938 A 33.070866 33.070866 0 0 1 805.03906 271.18164 A 33.070866 33.070866 0 0 1 771.96875 238.10938 A 33.070866 33.070866 0 0 1 805.03906 205.03906 z M 805.03906 299.52734 A 33.070866 33.070866 0 0 1 838.10938 332.59766 A 33.070866 33.070866 0 0 1 805.03906 365.66992 A 33.070866 33.070866 0 0 1 771.96875 332.59766 A 33.070866 33.070866 0 0 1 805.03906 299.52734 z M 805.03906 394.01562 A 33.070866 33.070866 0 0 1 838.10938 427.08594 A 33.070866 33.070866 0 0 1 805.03906 460.1582 A 33.070866 33.070866 0 0 1 771.96875 427.08594 A 33.070866 33.070866 0 0 1 805.03906 394.01562 z "
       transform="matrix(0.26458333,0,0,0.26458333,-0.5,-0.50002289)" />
    <rect
       style="fill:#ff8080;fill-opacity:1;stroke:none;stroke-width:1;stroke-linecap:round;stroke-linejoin:round;stroke-miterlimit:4;stroke-dasharray:none;stroke-opacity:1"
       id="rect10701"
       width="25"
       height="174.99998"
       x="250"
       y="1.5258789e-05"
       rx="3.9999974"
       ry="3.9999974" />
    <rect
       style="fill:#ff8080;fill-opacity:1;stroke:none;stroke-width:1;stroke-linecap:round;stroke-linejoin:round;stroke-miterlimit:4;stroke-dasharray:none;stroke-opacity:1"
       id="rect10703"
       width="25"
       height="200"
       x="300"
       y="0"
       rx="3.9999974"
       ry="3.9999974" />
    <rect
       style="fill:#ff8080;fill-opacity:1;stroke:none;stroke-width:1;stroke-linecap:round;stroke-linejoin:round;stroke-miterlimit:4;stroke-dasharray:none;stroke-opacity:1"
       id="rect10707"
       width="25"
       height="224.99998"
       x="349.99997"
       y="0"
       rx="3.9999974"
       ry="3.9999974" />
    <rect
       style="fill:#ff8080;fill-opacity:1;stroke:none;stroke-width:1;stroke-linecap:round;stroke-linejoin:round;stroke-miterlimit:4;stroke-dasharray:none;stroke-opacity:1"
       id="rect10709"
       width="25"
       height="250"
       x="400"
       y="0"
       rx="3.9999974"
       ry="3.9999974" />
    <rect
       style="fill:#ff8080;fill-opacity:1;stroke:none;stroke-width:1;stroke-linecap:round;stroke-linejoin:round;stroke-miterlimit:4;stroke-dasharray:none;stroke-opacity:1"
       id="rect10713"
       width="25"
       height="275"
       x="450"
       y="0"
       rx="3.9999974"
       ry="3.9999974" />
    <path
       id="rect11123"
       style="fill:#ff8080;fill-opacity:1;stroke:none;stroke-width:3.77953;stroke-linecap:round;stroke-linejoin:round;stroke-miterlimit:4;stroke-dasharray:none;stroke-opacity:1"
       d="M 394.96094 1.890625 C 386.58551 1.890625 379.8418 8.6323849 379.8418 17.007812 L 379.8418 270.23633 C 379.8418 278.61176 386.58551 285.35352 394.96094 285.35352 L 459.21289 285.35352 C 467.58832 285.35352 474.33008 278.61176 474.33008 270.23633 L 474.33008 17.007812 C 474.33008 8.6323849 467.58832 1.890625 459.21289 1.890625 L 394.96094 1.890625 z M 427.08594 16.0625 A 33.070866 33.070866 0 0 1 460.1582 49.134766 A 33.070866 33.070866 0 0 1 427.08594 82.205078 A 33.070866 33.070866 0 0 1 394.01562 49.134766 A 33.070866 33.070866 0 0 1 427.08594 16.0625 z M 427.08594 110.55078 A 33.070866 33.070866 0 0 1 460.1582 143.62305 A 33.070866 33.070866 0 0 1 427.08594 176.69336 A 33.070866 33.070866 0 0 1 394.01562 143.62305 A 33.070866 33.070866 0 0 1 427.08594 110.55078 z M 427.08594 205.03906 A 33.070866 33.070866 0 0 1 460.1582 238.10938 A 33.070866 33.070866 0 0 1 427.08594 271.18164 A 33.070866 33.070866 0 0 1 394.01562 238.10938 A 33.070866 33.070866 0 0 1 427.08594 205.03906 z "
       transform="matrix(0.26458333,0,0,0.26458333,-0.5,-0.50002289)" />
    <path
       id="rect2063"
       style="fill:#ff8080;fill-opacity:1;stroke:none;stroke-width:3.77953;stroke-linecap:round;stroke-linejoin:round;stroke-miterlimit:4;stroke-dasharray:none;stroke-opacity:1"
       d="M 205.98438 1.890625 C 197.60895 1.890625 190.86523 8.6323849 190.86523 17.007812 L 190.86523 175.74805 C 190.86523 184.12347 197.60895 190.86719 205.98438 190.86719 L 270.23633 190.86719 C 278.61176 190.86719 285.35352 184.12347 285.35352 175.74805 L 285.35352 17.007812 C 285.35352 8.6323849 278.61176 1.890625 270.23633 1.890625 L 205.98438 1.890625 z M 238.10938 16.0625 A 33.070866 33.070866 0 0 1 271.18164 49.134766 A 33.070866 33.070866 0 0 1 238.10938 82.205078 A 33.070866 33.070866 0 0 1 205.03906 49.134766 A 33.070866 33.070866 0 0 1 238.10938 16.0625 z M 238.10938 110.55078 A 33.070866 33.070866 0 0 1 271.18164 143.62305 A 33.070866 33.070866 0 0 1 238.10938 176.69336 A 33.070866 33.070866 0 0 1 205.03906 143.62305 A 33.070866 33.070866 0 0 1 238.10938 110.55078 z "
       transform="matrix(0.26458333,0,0,0.26458333,-0.5,-0.50002289)" />
    <path
       id="rect2065"
       style="fill:#ff8080;fill-opacity:1;stroke:none;stroke-width:3.77953;stroke-linecap:round;stroke-linejoin:round;stroke-miterlimit:4;stroke-dasharray:none;stroke-opacity:1"
       d="M 17.007812 1.890625 C 8.6323849 1.890625 1.890625 8.6323849 1.890625 17.007812 L 1.890625 81.259766 C 1.890625 89.635193 8.6323849 96.378906 17.007812 96.378906 L 81.259766 96.378906 C 89.635193 96.378906 96.378906 89.635193 96.378906 81.259766 L 96.378906 17.007812 C 96.378906 8.6323849 89.635193 1.890625 81.259766 1.890625 L 17.007812 1.890625 z M 49.134766 16.0625 A 33.070866 33.070866 0 0 1 82.205078 49.134766 A 33.070866 33.070866 0 0 1 49.134766 82.205078 A 33.070866 33.070866 0 0 1 16.0625 49.134766 A 33.070866 33.070866 0 0 1 49.134766 16.0625 z "
       transform="matrix(0.26458333,0,0,0.26458333,-0.5,-0.50002289)" />
    <path
       id="rect3041"
       style="fill:#ff8080;fill-opacity:1;stroke:none;stroke-width:3.77953;stroke-linecap:round;stroke-linejoin:round;stroke-miterlimit:4;stroke-dasharray:none;stroke-opacity:1"
       d="M 583.9375 1.890625 C 575.56207 1.890625 568.81836 8.6323849 568.81836 17.007812 L 568.81836 364.72461 C 568.81836 373.10004 575.56207 379.8418 583.9375 379.8418 L 648.18945 379.8418 C 656.56488 379.8418 663.30664 373.10004 663.30664 364.72461 L 663.30664 17.007812 C 663.30664 8.6323849 656.56488 1.890625 648.18945 1.890625 L 583.9375 1.890625 z M 616.0625 16.0625 A 33.070866 33.070866 0 0 1 649.13477 49.134766 A 33.070866 33.070866 0 0 1 616.0625 82.205078 A 33.070866 33.070866 0 0 1 582.99219 49.134766 A 33.070866 33.070866 0 0 1 616.0625 16.0625 z M 616.0625 110.55078 A 33.070866 33.070866 0 0 1 649.13477 143.62305 A 33.070866 33.070866 0 0 1 616.0625 176.69336 A 33.070866 33.070866 0 0 1 582.99219 143.62305 A 33.070866 33.070866 0 0 1 616.0625 110.55078 z M 616.0625 205.03906 A 33.070866 33.070866 0 0 1 649.13477 238.10938 A 33.070866 33.070866 0 0 1 616.0625 271.18164 A 33.070866 33.070866 0 0 1 582.99219 238.10938 A 33.070866 33.070866 0 0 1 616.0625 205.03906 z M 616.0625 299.52734 A 33.070866 33.070866 0 0 1 649.13477 332.59766 A 33.070866 33.070866 0 0 1 616.0625 365.66992 A 33.070866 33.070866 0 0 1 582.99219 332.59766 A 33.070866 33.070866 0 0 1 616.0625 299.52734 z "
       transform="matrix(0.26458333,0,0,0.26458333,-0.5,-0.50002289)" />
  </g>
  <g
     inkscape:groupmode="layer"
     id="layer2"
     inkscape:label="gaten"
     style="display:inline"
     transform="translate(0.39998474,0.40002289)">
    <path
       id="circle11397"
       style="fill:#f30000;fill-opacity:1;stroke:none;stroke-width:0.755906;stroke-linecap:round;stroke-linejoin:round;stroke-miterlimit:4;stroke-dasharray:none;stroke-opacity:1"
       d="M 994.01562 16.0625 A 33.070866 33.070866 0 0 0 960.94531 49.134766 A 33.070866 33.070866 0 0 0 994.01562 82.205078 A 33.070866 33.070866 0 0 0 1027.0859 49.134766 A 33.070866 33.070866 0 0 0 994.01562 16.0625 z M 994.01562 110.55078 A 33.070866 33.070866 0 0 0 960.94531 143.62305 A 33.070866 33.070866 0 0 0 994.01562 176.69336 A 33.070866 33.070866 0 0 0 1027.0859 143.62305 A 33.070866 33.070866 0 0 0 994.01562 110.55078 z M 994.01562 205.03906 A 33.070866 33.070866 0 0 0 960.94531 238.10938 A 33.070866 33.070866 0 0 0 994.01562 271.18164 A 33.070866 33.070866 0 0 0 1027.0859 238.10938 A 33.070866 33.070866 0 0 0 994.01562 205.03906 z M 994.01562 299.52734 A 33.070866 33.070866 0 0 0 960.94531 332.59766 A 33.070866 33.070866 0 0 0 994.01562 365.66992 A 33.070866 33.070866 0 0 0 1027.0859 332.59766 A 33.070866 33.070866 0 0 0 994.01562 299.52734 z M 994.01562 394.01562 A 33.070866 33.070866 0 0 0 960.94531 427.08594 A 33.070866 33.070866 0 0 0 994.01562 460.1582 A 33.070866 33.070866 0 0 0 1027.0859 427.08594 A 33.070866 33.070866 0 0 0 994.01562 394.01562 z M 994.01562 488.50391 A 33.070866 33.070866 0 0 0 960.94531 521.57422 A 33.070866 33.070866 0 0 0 994.01562 554.64648 A 33.070866 33.070866 0 0 0 1027.0859 521.57422 A 33.070866 33.070866 0 0 0 994.01562 488.50391 z M 994.01562 582.99219 A 33.070866 33.070866 0 0 0 960.94531 616.0625 A 33.070866 33.070866 0 0 0 994.01562 649.13477 A 33.070866 33.070866 0 0 0 1027.0859 616.0625 A 33.070866 33.070866 0 0 0 994.01562 582.99219 z "
       transform="matrix(0.26458333,0,0,0.26458333,-0.39998474,-0.40002289)" />
    <path
       id="circle11399"
       style="fill:#f30000;fill-opacity:1;stroke:none;stroke-width:0.755906;stroke-linecap:round;stroke-linejoin:round;stroke-miterlimit:4;stroke-dasharray:none;stroke-opacity:1"
       d="M 1182.9922 16.0625 A 33.070866 33.070866 0 0 0 1149.9219 49.134766 A 33.070866 33.070866 0 0 0 1182.9922 82.205078 A 33.070866 33.070866 0 0 0 1216.0625 49.134766 A 33.070866 33.070866 0 0 0 1182.9922 16.0625 z M 1182.9922 110.55078 A 33.070866 33.070866 0 0 0 1149.9219 143.62305 A 33.070866 33.070866 0 0 0 1182.9922 176.69336 A 33.070866 33.070866 0 0 0 1216.0625 143.62305 A 33.070866 33.070866 0 0 0 1182.9922 110.55078 z M 1182.9922 205.03906 A 33.070866 33.070866 0 0 0 1149.9219 238.10938 A 33.070866 33.070866 0 0 0 1182.9922 271.18164 A 33.070866 33.070866 0 0 0 1216.0625 238.10938 A 33.070866 33.070866 0 0 0 1182.9922 205.03906 z M 1182.9922 299.52734 A 33.070866 33.070866 0 0 0 1149.9219 332.59766 A 33.070866 33.070866 0 0 0 1182.9922 365.66992 A 33.070866 33.070866 0 0 0 1216.0625 332.59766 A 33.070866 33.070866 0 0 0 1182.9922 299.52734 z M 1182.9922 394.01562 A 33.070866 33.070866 0 0 0 1149.9219 427.08594 A 33.070866 33.070866 0 0 0 1182.9922 460.1582 A 33.070866 33.070866 0 0 0 1216.0625 427.08594 A 33.070866 33.070866 0 0 0 1182.9922 394.01562 z M 1182.9922 488.50391 A 33.070866 33.070866 0 0 0 1149.9219 521.57422 A 33.070866 33.070866 0 0 0 1182.9922 554.64648 A 33.070866 33.070866 0 0 0 1216.0625 521.57422 A 33.070866 33.070866 0 0 0 1182.9922 488.50391 z M 1182.9922 582.99219 A 33.070866 33.070866 0 0 0 1149.9219 616.0625 A 33.070866 33.070866 0 0 0 1182.9922 649.13477 A 33.070866 33.070866 0 0 0 1216.0625 616.0625 A 33.070866 33.070866 0 0 0 1182.9922 582.99219 z M 1182.9922 677.48047 A 33.070866 33.070866 0 0 0 1149.9219 710.55078 A 33.070866 33.070866 0 0 0 1182.9922 743.62305 A 33.070866 33.070866 0 0 0 1216.0625 710.55078 A 33.070866 33.070866 0 0 0 1182.9922 677.48047 z "
       transform="matrix(0.26458333,0,0,0.26458333,-0.39998474,-0.40002289)" />
    <path
       id="circle11401"
       style="fill:#f30000;fill-opacity:1;stroke:none;stroke-width:0.755906;stroke-linecap:round;stroke-linejoin:round;stroke-miterlimit:4;stroke-dasharray:none;stroke-opacity:1"
       d="M 1371.9688 16.0625 A 33.070866 33.070866 0 0 0 1338.8984 49.134766 A 33.070866 33.070866 0 0 0 1371.9688 82.205078 A 33.070866 33.070866 0 0 0 1405.0391 49.134766 A 33.070866 33.070866 0 0 0 1371.9688 16.0625 z M 1371.9688 110.55078 A 33.070866 33.070866 0 0 0 1338.8984 143.62305 A 33.070866 33.070866 0 0 0 1371.9688 176.69336 A 33.070866 33.070866 0 0 0 1405.0391 143.62305 A 33.070866 33.070866 0 0 0 1371.9688 110.55078 z M 1371.9688 205.03906 A 33.070866 33.070866 0 0 0 1338.8984 238.10938 A 33.070866 33.070866 0 0 0 1371.9688 271.18164 A 33.070866 33.070866 0 0 0 1405.0391 238.10938 A 33.070866 33.070866 0 0 0 1371.9688 205.03906 z M 1371.9688 299.52734 A 33.070866 33.070866 0 0 0 1338.8984 332.59766 A 33.070866 33.070866 0 0 0 1371.9688 365.66992 A 33.070866 33.070866 0 0 0 1405.0391 332.59766 A 33.070866 33.070866 0 0 0 1371.9688 299.52734 z M 1371.9688 394.01562 A 33.070866 33.070866 0 0 0 1338.8984 427.08594 A 33.070866 33.070866 0 0 0 1371.9688 460.1582 A 33.070866 33.070866 0 0 0 1405.0391 427.08594 A 33.070866 33.070866 0 0 0 1371.9688 394.01562 z M 1371.9688 488.50391 A 33.070866 33.070866 0 0 0 1338.8984 521.57422 A 33.070866 33.070866 0 0 0 1371.9688 554.64648 A 33.070866 33.070866 0 0 0 1405.0391 521.57422 A 33.070866 33.070866 0 0 0 1371.9688 488.50391 z M 1371.9688 582.99219 A 33.070866 33.070866 0 0 0 1338.8984 616.0625 A 33.070866 33.070866 0 0 0 1371.9688 649.13477 A 33.070866 33.070866 0 0 0 1405.0391 616.0625 A 33.070866 33.070866 0 0 0 1371.9688 582.99219 z M 1371.9688 677.48047 A 33.070866 33.070866 0 0 0 1338.8984 710.55078 A 33.070866 33.070866 0 0 0 1371.9688 743.62305 A 33.070866 33.070866 0 0 0 1405.0391 710.55078 A 33.070866 33.070866 0 0 0 1371.9688 677.48047 z M 1371.9688 771.96875 A 33.070866 33.070866 0 0 0 1338.8984 805.03906 A 33.070866 33.070866 0 0 0 1371.9688 838.10938 A 33.070866 33.070866 0 0 0 1405.0391 805.03906 A 33.070866 33.070866 0 0 0 1371.9688 771.96875 z "
       transform="matrix(0.26458333,0,0,0.26458333,-0.39998474,-0.40002289)" />
    <path
       id="circle11403"
       style="fill:#f30000;fill-opacity:1;stroke:none;stroke-width:0.755906;stroke-linecap:round;stroke-linejoin:round;stroke-miterlimit:4;stroke-dasharray:none;stroke-opacity:1"
       d="M 1560.9453 16.0625 A 33.070866 33.070866 0 0 0 1527.873 49.134766 A 33.070866 33.070866 0 0 0 1560.9453 82.205078 A 33.070866 33.070866 0 0 0 1594.0156 49.134766 A 33.070866 33.070866 0 0 0 1560.9453 16.0625 z M 1560.9453 110.55078 A 33.070866 33.070866 0 0 0 1527.873 143.62305 A 33.070866 33.070866 0 0 0 1560.9453 176.69336 A 33.070866 33.070866 0 0 0 1594.0156 143.62305 A 33.070866 33.070866 0 0 0 1560.9453 110.55078 z M 1560.9453 205.03906 A 33.070866 33.070866 0 0 0 1527.873 238.10938 A 33.070866 33.070866 0 0 0 1560.9453 271.18164 A 33.070866 33.070866 0 0 0 1594.0156 238.10938 A 33.070866 33.070866 0 0 0 1560.9453 205.03906 z M 1560.9453 299.52734 A 33.070866 33.070866 0 0 0 1527.873 332.59766 A 33.070866 33.070866 0 0 0 1560.9453 365.66992 A 33.070866 33.070866 0 0 0 1594.0156 332.59766 A 33.070866 33.070866 0 0 0 1560.9453 299.52734 z M 1560.9453 394.01562 A 33.070866 33.070866 0 0 0 1527.873 427.08594 A 33.070866 33.070866 0 0 0 1560.9453 460.1582 A 33.070866 33.070866 0 0 0 1594.0156 427.08594 A 33.070866 33.070866 0 0 0 1560.9453 394.01562 z M 1560.9453 488.50391 A 33.070866 33.070866 0 0 0 1527.873 521.57422 A 33.070866 33.070866 0 0 0 1560.9453 554.64648 A 33.070866 33.070866 0 0 0 1594.0156 521.57422 A 33.070866 33.070866 0 0 0 1560.9453 488.50391 z M 1560.9453 582.99219 A 33.070866 33.070866 0 0 0 1527.873 616.0625 A 33.070866 33.070866 0 0 0 1560.9453 649.13477 A 33.070866 33.070866 0 0 0 1594.0156 616.0625 A 33.070866 33.070866 0 0 0 1560.9453 582.99219 z M 1560.9453 677.48047 A 33.070866 33.070866 0 0 0 1527.873 710.55078 A 33.070866 33.070866 0 0 0 1560.9453 743.62305 A 33.070866 33.070866 0 0 0 1594.0156 710.55078 A 33.070866 33.070866 0 0 0 1560.9453 677.48047 z M 1560.9453 771.96875 A 33.070866 33.070866 0 0 0 1527.873 805.03906 A 33.070866 33.070866 0 0 0 1560.9453 838.10938 A 33.070866 33.070866 0 0 0 1594.0156 805.03906 A 33.070866 33.070866 0 0 0 1560.9453 771.96875 z M 1560.9453 866.45703 A 33.070866 33.070866 0 0 0 1527.873 899.52734 A 33.070866 33.070866 0 0 0 1560.9453 932.59766 A 33.070866 33.070866 0 0 0 1594.0156 899.52734 A 33.070866 33.070866 0 0 0 1560.9453 866.45703 z "
       transform="matrix(0.26458333,0,0,0.26458333,-0.39998474,-0.40002289)" />
    <path
       id="circle2245"
       style="fill:#f30000;fill-opacity:1;stroke:none;stroke-width:0.755906;stroke-linecap:round;stroke-linejoin:round;stroke-miterlimit:4;stroke-dasharray:none;stroke-opacity:1"
       d="M 1749.9219 16.0625 A 33.070866 33.070866 0 0 0 1716.8496 49.134766 A 33.070866 33.070866 0 0 0 1749.9219 82.205078 A 33.070866 33.070866 0 0 0 1782.9922 49.134766 A 33.070866 33.070866 0 0 0 1749.9219 16.0625 z M 1749.9219 110.55078 A 33.070866 33.070866 0 0 0 1716.8496 143.62305 A 33.070866 33.070866 0 0 0 1749.9219 176.69336 A 33.070866 33.070866 0 0 0 1782.9922 143.62305 A 33.070866 33.070866 0 0 0 1749.9219 110.55078 z M 1749.9219 205.03906 A 33.070866 33.070866 0 0 0 1716.8496 238.10938 A 33.070866 33.070866 0 0 0 1749.9219 271.18164 A 33.070866 33.070866 0 0 0 1782.9922 238.10938 A 33.070866 33.070866 0 0 0 1749.9219 205.03906 z M 1749.9219 299.52734 A 33.070866 33.070866 0 0 0 1716.8496 332.59766 A 33.070866 33.070866 0 0 0 1749.9219 365.66992 A 33.070866 33.070866 0 0 0 1782.9922 332.59766 A 33.070866 33.070866 0 0 0 1749.9219 299.52734 z M 1749.9219 394.01562 A 33.070866 33.070866 0 0 0 1716.8496 427.08594 A 33.070866 33.070866 0 0 0 1749.9219 460.1582 A 33.070866 33.070866 0 0 0 1782.9922 427.08594 A 33.070866 33.070866 0 0 0 1749.9219 394.01562 z M 1749.9219 488.50391 A 33.070866 33.070866 0 0 0 1716.8496 521.57422 A 33.070866 33.070866 0 0 0 1749.9219 554.64648 A 33.070866 33.070866 0 0 0 1782.9922 521.57422 A 33.070866 33.070866 0 0 0 1749.9219 488.50391 z M 1749.9219 582.99219 A 33.070866 33.070866 0 0 0 1716.8496 616.0625 A 33.070866 33.070866 0 0 0 1749.9219 649.13477 A 33.070866 33.070866 0 0 0 1782.9922 616.0625 A 33.070866 33.070866 0 0 0 1749.9219 582.99219 z M 1749.9219 677.48047 A 33.070866 33.070866 0 0 0 1716.8496 710.55078 A 33.070866 33.070866 0 0 0 1749.9219 743.62305 A 33.070866 33.070866 0 0 0 1782.9922 710.55078 A 33.070866 33.070866 0 0 0 1749.9219 677.48047 z M 1749.9219 771.96875 A 33.070866 33.070866 0 0 0 1716.8496 805.03906 A 33.070866 33.070866 0 0 0 1749.9219 838.10938 A 33.070866 33.070866 0 0 0 1782.9922 805.03906 A 33.070866 33.070866 0 0 0 1749.9219 771.96875 z M 1749.9219 866.45703 A 33.070866 33.070866 0 0 0 1716.8496 899.52734 A 33.070866 33.070866 0 0 0 1749.9219 932.59766 A 33.070866 33.070866 0 0 0 1782.9922 899.52734 A 33.070866 33.070866 0 0 0 1749.9219 866.45703 z M 1749.9219 960.94531 A 33.070866 33.070866 0 0 0 1716.8496 994.01562 A 33.070866 33.070866 0 0 0 1749.9219 1027.0859 A 33.070866 33.070866 0 0 0 1782.9922 994.01562 A 33.070866 33.070866 0 0 0 1749.9219 960.94531 z "
       transform="matrix(0.26458333,0,0,0.26458333,-0.39998474,-0.40002289)" />
  </g>
</svg>
