<?xml version="1.0" encoding="UTF-8" standalone="no"?>
<!-- Created with Inkscape (http://www.inkscape.org/) -->

<svg
   width="210mm"
   height="297mm"
   viewBox="0 0 210 297"
   version="1.1"
   id="svg1491"
   inkscape:version="1.1.1 (3bf5ae0d25, 2021-09-20)"
   sodipodi:docname="numicon dobbelsteen.svg"
   xmlns:inkscape="http://www.inkscape.org/namespaces/inkscape"
   xmlns:sodipodi="http://sodipodi.sourceforge.net/DTD/sodipodi-0.dtd"
   xmlns="http://www.w3.org/2000/svg"
   xmlns:svg="http://www.w3.org/2000/svg">
  <sodipodi:namedview
     id="namedview1493"
     pagecolor="#ffffff"
     bordercolor="#666666"
     borderopacity="1.0"
     inkscape:pageshadow="2"
     inkscape:pageopacity="0.0"
     inkscape:pagecheckerboard="0"
     inkscape:document-units="mm"
     showgrid="true"
     inkscape:zoom="1.4467452"
     inkscape:cx="403.66471"
     inkscape:cy="332.12482"
     inkscape:window-width="1920"
     inkscape:window-height="1001"
     inkscape:window-x="-9"
     inkscape:window-y="-9"
     inkscape:window-maximized="1"
     inkscape:current-layer="layer1"
     objecttolerance="6.6">
    <inkscape:grid
       type="xygrid"
       id="grid17638"
       spacingx="5"
       spacingy="5"
       units="mm" />
  </sodipodi:namedview>
  <defs
     id="defs1488" />
  <g
     inkscape:label="Layer 1"
     inkscape:groupmode="layer"
     id="layer1">
    <g
       id="g10253"
       transform="translate(-161.10641,95.186223)">
      <g
         id="g1599"
         transform="translate(-82.662562,-21.580049)">
        <rect
           style="fill:#008245;stroke-width:0.2;stroke-linecap:round;stroke-linejoin:round"
           id="rect1484"
           width="25"
           height="25"
           x="90.375076"
           y="28.440647"
           rx="2" />
        <circle
           style="fill:#ff2a2a;stroke-width:0.2;stroke-linecap:round;stroke-linejoin:round"
           id="circle1486"
           cx="102.87508"
           cy="40.940647"
           r="8.5" />
      </g>
      <g
         id="g1605"
         transform="translate(-82.662562,3.419951)">
        <rect
           style="fill:#008245;stroke-width:0.2;stroke-linecap:round;stroke-linejoin:round"
           id="rect1601"
           width="25"
           height="25"
           x="90.375076"
           y="28.440647"
           rx="2" />
        <circle
           style="fill:#ff2a2a;stroke-width:0.2;stroke-linecap:round;stroke-linejoin:round"
           id="circle1603"
           cx="102.87508"
           cy="40.940647"
           r="8.5" />
      </g>
      <g
         id="g1611"
         transform="translate(-82.662562,28.419951)">
        <rect
           style="fill:#008245;stroke-width:0.2;stroke-linecap:round;stroke-linejoin:round"
           id="rect1607"
           width="25"
           height="25"
           x="90.375076"
           y="28.440647"
           rx="2" />
        <circle
           style="fill:#ff2a2a;stroke-width:0.2;stroke-linecap:round;stroke-linejoin:round"
           id="circle1609"
           cx="102.87508"
           cy="40.940647"
           r="8.5" />
      </g>
      <g
         id="g1617"
         transform="translate(-82.662562,53.419951)">
        <rect
           style="fill:#008245;stroke-width:0.2;stroke-linecap:round;stroke-linejoin:round"
           id="rect1613"
           width="25"
           height="25"
           x="90.375076"
           y="28.440647"
           rx="2" />
        <circle
           style="fill:#ff2a2a;stroke-width:0.2;stroke-linecap:round;stroke-linejoin:round"
           id="circle1615"
           cx="102.87508"
           cy="40.940647"
           r="8.5" />
      </g>
      <g
         id="g1623"
         transform="translate(-82.662562,78.419951)">
        <rect
           style="fill:#008245;stroke-width:0.2;stroke-linecap:round;stroke-linejoin:round"
           id="rect1619"
           width="25"
           height="25"
           x="90.375076"
           y="28.440647"
           rx="2" />
        <circle
           style="fill:#ff2a2a;stroke-width:0.2;stroke-linecap:round;stroke-linejoin:round"
           id="circle1621"
           cx="102.87508"
           cy="40.940647"
           r="8.5" />
      </g>
      <g
         id="g1629"
         transform="translate(-57.662562,-21.580049)">
        <rect
           style="fill:#008245;stroke-width:0.2;stroke-linecap:round;stroke-linejoin:round"
           id="rect1625"
           width="25"
           height="25"
           x="90.375076"
           y="28.440647"
           rx="2" />
        <circle
           style="fill:#ff2a2a;stroke-width:0.2;stroke-linecap:round;stroke-linejoin:round"
           id="circle1627"
           cx="102.87508"
           cy="40.940647"
           r="8.5" />
      </g>
      <g
         id="g1635"
         transform="translate(-57.662562,3.419951)">
        <rect
           style="fill:#008245;stroke-width:0.2;stroke-linecap:round;stroke-linejoin:round"
           id="rect1631"
           width="25"
           height="25"
           x="90.375076"
           y="28.440647"
           rx="2" />
        <circle
           style="fill:#ff2a2a;stroke-width:0.2;stroke-linecap:round;stroke-linejoin:round"
           id="circle1633"
           cx="102.87508"
           cy="40.940647"
           r="8.5" />
      </g>
      <g
         id="g1641"
         transform="translate(-57.662562,28.419951)">
        <rect
           style="fill:#008245;stroke-width:0.2;stroke-linecap:round;stroke-linejoin:round"
           id="rect1637"
           width="25"
           height="25"
           x="90.375076"
           y="28.440647"
           rx="2" />
        <circle
           style="fill:#ff2a2a;stroke-width:0.2;stroke-linecap:round;stroke-linejoin:round"
           id="circle1639"
           cx="102.87508"
           cy="40.940647"
           r="8.5" />
      </g>
      <g
         id="g1647"
         transform="translate(-57.662562,53.419951)">
        <rect
           style="fill:#008245;stroke-width:0.2;stroke-linecap:round;stroke-linejoin:round"
           id="rect1643"
           width="25"
           height="25"
           x="90.375076"
           y="28.440647"
           rx="2" />
        <circle
           style="fill:#ff2a2a;stroke-width:0.2;stroke-linecap:round;stroke-linejoin:round"
           id="circle1645"
           cx="102.87508"
           cy="40.940647"
           r="8.5" />
      </g>
      <g
         id="g1653"
         transform="translate(-57.662562,78.419951)">
        <rect
           style="fill:#008245;stroke-width:0.2;stroke-linecap:round;stroke-linejoin:round"
           id="rect1649"
           width="25"
           height="25"
           x="90.375076"
           y="28.440647"
           rx="2" />
        <circle
           style="fill:#ff2a2a;stroke-width:0.2;stroke-linecap:round;stroke-linejoin:round"
           id="circle1651"
           cx="102.87508"
           cy="40.940647"
           r="8.5" />
      </g>
    </g>
    <text
       xml:space="preserve"
       style="font-style:normal;font-variant:normal;font-weight:normal;font-stretch:normal;font-size:211.667px;line-height:1.25;font-family:numicon;-inkscape-font-specification:'numicon, Normal';font-variant-ligatures:none;font-variant-caps:normal;font-variant-numeric:normal;font-variant-east-asian:normal;stroke-width:0.264583"
       x="-175.5665"
       y="94.366997"
       id="text3733"><tspan
         sodipodi:role="line"
         id="tspan9289"
         x="-175.5665"
         y="94.366997">j</tspan></text>
    <g
       aria-label="a"
       id="text11381"
       style="font-size:211.667px;line-height:1.25;font-family:numicon;-inkscape-font-specification:'numicon, Normal';font-variant-ligatures:none;stroke-width:0.264583"
       transform="matrix(0,-0.29999999,-0.3,0,71.588098,110.0691)">
      <path
         d="m 24.466608,16.118885 q 3.100591,0 5.271005,2.273766 2.273767,2.170414 2.273767,5.271005 0,3.100591 -2.273767,5.374357 -2.170414,2.170414 -5.271005,2.170414 -3.100591,0 -5.374357,-2.170414 -2.170414,-2.273766 -2.170414,-5.374357 0,-3.100591 2.170414,-5.271005 2.273766,-2.273766 5.374357,-2.273766 z M 12.374304,11.157939 q -0.206706,0 -0.310059,0.103353 -0.103353,0.103353 -0.103353,0.310059 V 35.75596 q 0,0.103353 0.103353,0.31006 0.103353,0.103353 0.310059,0.103353 h 24.184609 q 0.103353,0 0.310059,-0.103353 0.103353,-0.206707 0.103353,-0.31006 V 11.571351 q 0,-0.206706 -0.103353,-0.310059 -0.206706,-0.103353 -0.310059,-0.103353 z m 1.136883,0.826824 q 6.201182,0 12.402364,0 3.720709,0 7.544771,0 0.413412,0.103353 0.930177,0 0.516766,-0.103353 0.930178,0 0.516765,0.103353 0.826824,0.516765 0,6.201182 0,12.402364 0,3.927415 0,7.751478 -0.103353,0.413412 0,0.930177 0.103353,0.620118 0,1.03353 -0.103353,0.413412 -0.516765,0.723471 -6.201182,0 -12.505717,0 -3.824062,0 -7.648124,0 -0.413412,-0.103353 -1.033531,0 -0.516765,0.103353 -0.930177,0 -0.413412,-0.103353 -0.723471,-0.516765 0,-6.407888 0,-12.712423 0,-4.030768 0,-7.958183 0,-0.206706 0,-0.620118 -0.103353,-0.516765 0,-0.930178 0.103353,-0.516765 0.723471,-0.620118 z"
         id="path17346" />
    </g>
    <g
       aria-label="b"
       id="text12507"
       style="font-size:211.667px;line-height:1.25;font-family:numicon;-inkscape-font-specification:'numicon, Normal';font-variant-ligatures:none;stroke-width:0.264583"
       transform="matrix(0,-0.29999999,-0.3,0,62.558713,127.31886)">
      <path
         d="m 102.01631,93.56571 q 0,3.100591 -2.273766,5.271004 -2.170414,2.170416 -5.271005,2.170416 -3.100591,0 -5.271005,-2.170416 -2.170413,-2.170413 -2.170413,-5.271004 0,-3.100591 2.170413,-5.271005 2.170414,-2.273767 5.271005,-2.273767 3.100591,0 5.271005,2.273767 2.273766,2.170414 2.273766,5.271005 z m -25.011433,0 q 0,3.100591 -2.273767,5.271004 -2.170414,2.170416 -5.271004,2.170416 -3.100591,0 -5.271005,-2.170416 -2.170414,-2.170413 -2.170414,-5.271004 0,-3.100591 2.170414,-5.271005 2.170414,-2.273767 5.271005,-2.273767 3.10059,0 5.271004,2.273767 2.273767,2.170414 2.273767,5.271005 z M 106.97726,82.610288 q 0,-0.620118 -0.41342,-1.136883 -0.51676,-0.413412 -1.13688,-0.413412 H 58.504684 q -0.516765,0 -1.03353,0.413412 -0.516765,0.516765 -0.516765,1.136883 v 21.910842 q 0,0.51677 0.516765,1.03353 0.516765,0.51677 1.03353,0.51677 h 46.922276 q 0.62012,0 1.13688,-0.51677 0.41342,-0.51676 0.41342,-1.03353 z m -0.82683,0 q 0,6.407888 0,12.919129 0,3.617356 0,7.234713 0,0.31006 0,0.82682 0.10335,0.51677 0,1.03353 -0.10335,0.41342 -0.51676,0.51677 -14.056016,0.10335 -28.008675,0.10335 -8.578302,0 -17.156603,0 -0.413412,-0.10335 -0.930177,0 -0.516766,0 -1.033531,0 -0.413412,-0.10335 -0.620118,-0.51676 -0.103353,-6.304538 -0.103353,-12.609073 0,-3.824062 0,-7.751477 0.103353,-0.413412 0,-0.826824 0,-0.620119 0,-1.033531 0.103353,-0.413412 0.620118,-0.620118 14.056012,0 28.112025,0 8.681654,0 17.259954,0 0.41341,0 0.72347,0 0.62012,-0.103353 1.03353,0 0.51677,0.103353 0.62012,0.723471 z"
         id="path17466" />
    </g>
    <g
       aria-label="c"
       id="text13105"
       style="font-size:211.667px;line-height:1.25;font-family:numicon;-inkscape-font-specification:'numicon, Normal';font-variant-ligatures:none;stroke-width:0.264583"
       transform="matrix(0.3,0,0,0.29999999,13.688305,33.926882)">
      <path
         d="m 193.93367,154.35222 q 0.10336,0 0.31006,-0.10335 0.10335,-0.10336 0.10335,-0.31006 v -49.19605 q 0,-0.10335 -0.10335,-0.31006 -0.2067,-0.10335 -0.31006,-0.10335 h -24.18461 q -0.2067,0 -0.31006,0.10335 -0.10335,0.20671 -0.10335,0.31006 v 24.18461 q 0,0.20671 -0.10335,0.31006 -0.20671,0.10336 -0.31006,0.10336 h -24.18461 q -0.20671,0 -0.31006,0.10335 -0.10335,0.2067 -0.10335,0.31006 v 24.18461 q 0,0.2067 0.10335,0.31006 0.10335,0.10335 0.31006,0.10335 z m -12.0923,-44.95857 q 3.10059,0 5.271,2.17041 2.17042,2.17042 2.17042,5.27101 0,3.10059 -2.17042,5.37436 -2.17041,2.17041 -5.271,2.17041 -3.10059,0 -5.37436,-2.17041 -2.17041,-2.27377 -2.17041,-5.37436 0,-3.10059 2.17041,-5.27101 2.27377,-2.17041 5.37436,-2.17041 z m 0,25.01143 q 3.10059,0 5.271,2.17042 2.17042,2.17041 2.17042,5.271 0,3.10059 -2.17042,5.37436 -2.17041,2.17041 -5.271,2.17041 -3.10059,0 -5.37436,-2.17041 -2.17041,-2.27377 -2.17041,-5.37436 0,-3.10059 2.17041,-5.271 2.27377,-2.17042 5.37436,-2.17042 z m -25.01144,0 q 3.1006,0 5.27101,2.17042 2.27377,2.17041 2.27377,5.271 0,3.10059 -2.27377,5.37436 -2.17041,2.17041 -5.27101,2.17041 -3.10059,0 -5.37435,-2.17041 -2.17042,-2.27377 -2.17042,-5.37436 0,-3.10059 2.17042,-5.271 2.27376,-2.17042 5.37435,-2.17042 z m 14.05602,-29.2489 q 6.20118,0 12.40236,0 3.72071,0 7.54477,0 0.41341,0.10335 0.93018,0 0.51676,0 0.93018,0.10335 0.51676,0 0.72347,0.41341 0.10335,14.05601 0.10335,28.11203 0,8.5783 0,17.25995 -0.10335,0.41341 0,0.82683 0,0.51676 -0.10335,1.03353 0,0.41341 -0.51677,0.62011 -13.95266,0 -27.90532,0 -8.5783,0 -17.1566,0 -0.41341,-0.10335 -1.03353,0 -0.51676,0.10336 -0.93018,0.10336 -0.41341,-0.10336 -0.72347,-0.62012 0,-6.20118 0,-12.40236 0,-3.92742 0,-7.75148 0.10336,-0.41341 0,-0.93018 -0.10335,-0.51676 -0.10335,-0.93018 0.10335,-0.51676 0.62012,-0.72347 6.51124,-0.10335 13.12583,-0.10335 4.13412,0 8.16489,0 1.13689,0.20671 2.06706,-0.31006 0.93018,-0.51676 1.13689,-1.65365 0,-6.40789 0,-12.81577 0,-4.03077 0,-8.06154 0,-0.20671 0,-0.51677 -0.10336,-0.62011 0,-1.03353 0.10335,-0.51676 0.72347,-0.62011 z"
         id="path17529" />
    </g>
    <g
       aria-label="d"
       id="text13439"
       style="font-size:211.667px;line-height:1.25;font-family:numicon;-inkscape-font-specification:'numicon, Normal';font-variant-ligatures:none;stroke-width:0.264583"
       transform="matrix(0,-0.29999999,-0.3,0,100.67324,230.69398)">
      <path
         d="m 314.04384,100.61531 q 3.10059,0 5.271,2.17042 2.27377,2.17041 2.27377,5.271 0,3.20395 -2.27377,5.37436 -2.17041,2.17041 -5.271,2.17041 -3.10059,0 -5.37436,-2.17041 -2.17041,-2.17041 -2.17041,-5.37436 0,-3.10059 2.17041,-5.271 2.27377,-2.17042 5.37436,-2.17042 z m 25.01143,0 q 3.10059,0 5.271,2.17042 2.17042,2.17041 2.17042,5.271 0,3.20395 -2.17042,5.37436 -2.17041,2.17041 -5.271,2.17041 -3.10059,0 -5.37436,-2.17041 -2.17041,-2.17041 -2.17041,-5.37436 0,-3.10059 2.17041,-5.271 2.27377,-2.17042 5.37436,-2.17042 z m -25.01143,25.01144 q 3.10059,0 5.271,2.17041 2.27377,2.17042 2.27377,5.27101 0,3.10059 -2.27377,5.37435 -2.17041,2.17042 -5.271,2.17042 -3.10059,0 -5.37436,-2.17042 -2.17041,-2.27376 -2.17041,-5.37435 0,-3.10059 2.17041,-5.27101 2.27377,-2.17041 5.37436,-2.17041 z m 25.01143,0 q 3.10059,0 5.271,2.17041 2.17042,2.17042 2.17042,5.27101 0,3.10059 -2.17042,5.37435 -2.17041,2.17042 -5.271,2.17042 -3.10059,0 -5.37436,-2.17042 -2.17041,-2.27376 -2.17041,-5.37435 0,-3.10059 2.17041,-5.27101 2.27377,-2.17041 5.37436,-2.17041 z M 301.95153,95.654369 q -0.2067,0 -0.31006,0.103353 -0.10335,0.103353 -0.10335,0.310059 v 49.092689 q 0,0.20671 0.10335,0.31006 0.10336,0.10335 0.31006,0.10335 h 49.19604 q 0.10336,0 0.31006,-0.10335 0.10336,-0.10335 0.10336,-0.31006 V 96.067781 q 0,-0.206706 -0.10336,-0.310059 -0.2067,-0.103353 -0.31006,-0.103353 z m 1.13689,0.826824 q 13.8493,0 27.80196,0 8.5783,0 17.1566,0 0.41342,0 0.93018,0 0.51677,-0.103353 0.93018,0 0.51676,0 0.72347,0.516765 0.10335,13.952662 0.10335,28.008672 0,8.68165 0,17.25996 -0.10335,0.41341 0,0.93017 0,0.51677 -0.10335,0.93018 0,0.41341 -0.51677,0.62012 -13.95265,0 -27.90531,0 -8.68166,0 -17.36331,0 -0.41342,0 -0.82683,0 -0.51676,0.10335 -1.03353,0.10335 -0.41341,-0.10335 -0.62012,-0.62012 0,-14.05601 0,-28.11202 0,-8.78501 0,-17.466663 0,-0.310059 0,-0.620118 -0.10335,-0.516765 0,-1.033531 0.10336,-0.516765 0.72348,-0.516765 z"
         id="path17550" />
    </g>
    <g
       aria-label="f"
       id="text14107"
       style="font-size:211.667px;line-height:1.25;font-family:numicon;-inkscape-font-specification:'numicon, Normal';font-variant-ligatures:none;stroke-width:0.264583"
       transform="matrix(0,-0.29999999,-0.3,0,145.62572,59.810365)">
      <path
         d="m 44.483456,238.0029 q 3.100591,0 5.271005,2.17041 2.170414,2.17042 2.170414,5.27101 0,3.10059 -2.170414,5.37435 -2.170414,2.17042 -5.271005,2.17042 -3.203943,0 -5.374357,-2.17042 -2.170414,-2.27376 -2.170414,-5.37435 0,-3.10059 2.170414,-5.27101 2.170414,-2.17041 5.374357,-2.17041 z m 24.908081,0 q 3.100591,0 5.271005,2.17041 2.273766,2.17042 2.273766,5.27101 0,3.10059 -2.273766,5.37435 -2.170414,2.17042 -5.271005,2.17042 -3.100591,0 -5.271005,-2.17042 -2.170413,-2.27376 -2.170413,-5.37435 0,-3.10059 2.170413,-5.27101 2.170414,-2.17041 5.271005,-2.17041 z m -24.908081,24.90808 q 3.100591,0 5.271005,2.27377 2.170414,2.17041 2.170414,5.271 0,3.10059 -2.170414,5.37436 -2.170414,2.17041 -5.271005,2.17041 -3.203943,0 -5.374357,-2.17041 -2.170414,-2.27377 -2.170414,-5.37436 0,-3.10059 2.170414,-5.271 2.170414,-2.27377 5.374357,-2.27377 z m 24.908081,0 q 3.100591,0 5.271005,2.27377 2.273766,2.17041 2.273766,5.271 0,3.10059 -2.273766,5.37436 -2.170414,2.17041 -5.271005,2.17041 -3.100591,0 -5.271005,-2.17041 -2.170413,-2.27377 -2.170413,-5.37436 0,-3.10059 2.170413,-5.271 2.170414,-2.27377 5.271005,-2.27377 z m -24.908081,25.01143 q 3.100591,0 5.271005,2.27377 2.170414,2.17041 2.170414,5.271 0,3.10059 -2.170414,5.37436 -2.170414,2.17041 -5.271005,2.17041 -3.203943,0 -5.374357,-2.17041 -2.170414,-2.27377 -2.170414,-5.37436 0,-3.10059 2.170414,-5.271 2.170414,-2.27377 5.374357,-2.27377 z m 24.908081,0 q 3.100591,0 5.271005,2.27377 2.273766,2.17041 2.273766,5.271 0,3.10059 -2.273766,5.37436 -2.170414,2.17041 -5.271005,2.17041 -3.100591,0 -5.271005,-2.17041 -2.170413,-2.27377 -2.170413,-5.37436 0,-3.10059 2.170413,-5.271 2.170414,-2.27377 5.271005,-2.27377 z M 32.391152,232.9386 q -0.206706,0 -0.310059,0.10335 -0.103353,0.20671 -0.103353,0.31006 v 74.20748 q 0,0.10335 0.103353,0.31006 0.103353,0.10335 0.310059,0.10335 h 49.09269 q 0.206706,0 0.310059,-0.10335 0.103353,-0.20671 0.103353,-0.31006 v -74.20748 q 0,-0.10335 -0.103353,-0.31006 -0.103353,-0.10335 -0.310059,-0.10335 z m 1.03353,0.82682 q 14.056012,0 28.008672,0 8.578301,0 17.156603,0 0.413412,0.10336 0.826824,0 0.620118,0 1.03353,0.10336 0.413412,0 0.620118,0.51676 0,21.60079 0,43.09822 0,13.6426 0,27.18184 0,0.31006 0,0.82683 0.103353,0.51676 0,1.03353 0,0.41341 -0.516765,0.62012 -14.056012,0 -28.008671,0 -8.681655,0 -17.259956,0 -0.413412,-0.10336 -0.930178,0 -0.516765,0.10335 -0.930177,0 -0.413412,-0.10336 -0.620118,-0.62012 -0.103353,-21.70414 0,-43.51163 0,-13.53925 0,-27.07849 0,-0.20671 -0.103353,-0.51677 0,-0.62012 0.103353,-1.03353 0.103353,-0.51676 0.620118,-0.62012 z"
         id="path17487" />
    </g>
    <g
       aria-label="e"
       id="g17636"
       style="font-size:211.667px;line-height:1.25;font-family:numicon;-inkscape-font-specification:'numicon, Normal';font-variant-ligatures:none;stroke-width:0.264583"
       transform="matrix(0,-0.29999999,0.3,0,38.151046,198.09148)">
      <path
         d="m 342.47258,225.31033 q 0.10335,0 0.2067,-0.10335 0.20671,-0.20671 0.20671,-0.31006 v -74.20748 q 0,-0.10335 -0.20671,-0.31005 -0.10335,-0.10336 -0.2067,-0.10336 h -24.18461 q -0.20671,0 -0.31006,0.10336 -0.10335,0.2067 -0.10335,0.31005 v 24.18461 q 0,0.20671 -0.20671,0.31006 -0.10335,0.10336 -0.20671,0.10336 h -24.18461 q -0.2067,0 -0.31005,0.10335 -0.10336,0.20671 -0.10336,0.31006 v 25.01143 24.18461 q 0,0.10335 0.10336,0.31006 0.10335,0.10335 0.31005,0.10335 z m -12.09231,-69.97 q 3.10059,0 5.27101,2.17041 2.17041,2.17042 2.17041,5.27101 0,3.10059 -2.17041,5.37436 -2.17042,2.17041 -5.27101,2.17041 -3.10059,0 -5.37436,-2.17041 -2.17041,-2.27377 -2.17041,-5.37436 0,-3.10059 2.17041,-5.27101 2.27377,-2.17041 5.37436,-2.17041 z m -25.01143,24.90808 q 3.10059,0 5.271,2.27377 2.17042,2.17041 2.17042,5.271 0,3.10059 -2.17042,5.37436 -2.17041,2.17041 -5.271,2.17041 -3.10059,0 -5.37436,-2.17041 -2.17041,-2.27377 -2.17041,-5.37436 0,-3.10059 2.17041,-5.271 2.27377,-2.27377 5.37436,-2.27377 z m 25.01143,0 q 3.10059,0 5.27101,2.27377 2.17041,2.17041 2.17041,5.271 0,3.10059 -2.17041,5.37436 -2.17042,2.17041 -5.27101,2.17041 -3.10059,0 -5.37436,-2.17041 -2.17041,-2.27377 -2.17041,-5.37436 0,-3.10059 2.17041,-5.271 2.27377,-2.27377 5.37436,-2.27377 z m -25.01143,25.01144 q 3.10059,0 5.271,2.27376 2.17042,2.17042 2.17042,5.27101 0,3.10059 -2.17042,5.37435 -2.17041,2.17042 -5.271,2.17042 -3.10059,0 -5.37436,-2.17042 -2.17041,-2.27376 -2.17041,-5.37435 0,-3.10059 2.17041,-5.27101 2.27377,-2.27376 5.37436,-2.27376 z m 25.01143,0 q 3.10059,0 5.27101,2.27376 2.17041,2.17042 2.17041,5.27101 0,3.10059 -2.17041,5.37435 -2.17042,2.17042 -5.27101,2.17042 -3.10059,0 -5.37436,-2.17042 -2.17041,-2.27376 -2.17041,-5.37435 0,-3.10059 2.17041,-5.27101 2.27377,-2.27376 5.37436,-2.27376 z M 319.3215,151.10286 q 6.30453,0 12.50571,0 3.82407,0 7.64813,0 0.41341,0.10335 0.93018,0 0.51676,0 0.93017,0.10335 0.51677,0 0.62012,0.51677 0.10335,21.60078 0.10335,43.09821 0,13.6426 0,27.18185 -0.10335,0.31006 0,0.82682 0,0.51677 -0.10335,1.03353 0,0.41341 -0.51676,0.62012 -14.05602,0 -28.00867,0 -8.68166,0 -17.25996,0 -0.41341,-0.10335 -0.82683,0 -0.51676,0.10335 -1.03353,0 -0.41341,-0.10335 -0.62011,-0.62012 0,-13.84931 0,-27.80196 0,-8.68166 0,-17.25996 0,-0.41341 0,-1.03353 -0.10336,-0.41341 -0.10336,-0.82683 0.10336,-0.51676 0.51677,-0.72347 6.61459,-0.10335 13.22919,-0.10335 4.03076,0 8.16489,0 1.03353,0.20671 1.9637,-0.31006 1.03353,-0.62012 1.13689,-1.65365 0.10335,-6.40789 0.10335,-12.81577 0,-4.03077 0,-8.06154 0,-0.20671 0,-0.51676 -0.10335,-0.62012 0,-1.03353 0.10335,-0.51677 0.62012,-0.62012 z"
         id="path17634" />
    </g>
    <rect
       style="fill:none;fill-opacity:0.183398;stroke:#000000;stroke-width:0.50000001;stroke-linecap:round;stroke-linejoin:round;stroke-miterlimit:4;stroke-dasharray:1.00000003, 2.00000006;stroke-opacity:1;stroke-dashoffset:0"
       id="rect18214"
       width="29.999998"
       height="30"
       x="-147.72911"
       y="-79.488998"
       rx="0.60000032"
       transform="matrix(0,-1,-1,0,0,0)" />
    <rect
       style="fill:none;fill-opacity:0.183398;stroke:#000000;stroke-width:0.50000001;stroke-linecap:round;stroke-linejoin:round;stroke-miterlimit:4;stroke-dasharray:1.00000003, 2.00000006;stroke-opacity:1;stroke-dashoffset:0"
       id="rect18674"
       width="29.999998"
       height="30"
       x="-117.72911"
       y="-79.488998"
       rx="0.60000032"
       transform="matrix(0,-1,-1,0,0,0)" />
    <rect
       style="fill:none;fill-opacity:0.183398;stroke:#000000;stroke-width:0.50000001;stroke-linecap:round;stroke-linejoin:round;stroke-miterlimit:4;stroke-dasharray:1.00000003, 2.00000006;stroke-opacity:1;stroke-dashoffset:0"
       id="rect18676"
       width="29.999998"
       height="30"
       x="-87.729111"
       y="-79.488998"
       rx="0.60000032"
       transform="matrix(0,-1,-1,0,0,0)" />
    <rect
       style="fill:none;fill-opacity:0.183398;stroke:#000000;stroke-width:0.50000001;stroke-linecap:round;stroke-linejoin:round;stroke-miterlimit:4;stroke-dasharray:1.00000003, 2.00000006;stroke-opacity:1;stroke-dashoffset:0"
       id="rect18678"
       width="29.999998"
       height="30"
       x="-117.72911"
       y="-109.489"
       rx="0.60000032"
       transform="matrix(0,-1,-1,0,0,0)" />
    <rect
       style="fill:none;fill-opacity:0.183398;stroke:#000000;stroke-width:0.50000001;stroke-linecap:round;stroke-linejoin:round;stroke-miterlimit:4;stroke-dasharray:1.00000003, 2.00000006;stroke-opacity:1;stroke-dashoffset:0"
       id="rect18680"
       width="29.999998"
       height="30"
       x="-117.72911"
       y="-49.488998"
       rx="0.60000032"
       transform="matrix(0,-1,-1,0,0,0)" />
    <rect
       style="fill:none;fill-opacity:0.183398;stroke:#000000;stroke-width:0.50000001;stroke-linecap:round;stroke-linejoin:round;stroke-miterlimit:4;stroke-dasharray:1.00000003, 2.00000006;stroke-opacity:1;stroke-dashoffset:0"
       id="rect18682"
       width="29.999998"
       height="30"
       x="-57.729115"
       y="-79.488998"
       rx="0.60000032"
       transform="matrix(0,-1,-1,0,0,0)" />
  </g>
</svg>
